<?xml version="1.0" encoding="utf-8"?>
<!-- Generator: Adobe Illustrator 19.0.0, SVG Export Plug-In . SVG Version: 6.00 Build 0)  -->
<svg version="1.1" xmlns="http://www.w3.org/2000/svg" xmlns:xlink="http://www.w3.org/1999/xlink" x="0px" y="0px"
	 viewBox="0 0 236 504" style="enable-background:new 0 0 236 504;" xml:space="preserve">
<style type="text/css">
	.st0{fill:#FFFFFF;}
	.st1{fill:#89261B;}
	.st2{fill:#ECD2AA;}
	.st3{fill:#ABABAB;}
	.st4{fill:#484748;}
	.st5{fill:#1B1B1C;}
	.st6{fill:#5E5F61;}
	.st7{fill:#191919;}
	.st8{fill:#F1E135;}
	.st9{fill:#090908;}
</style>
<g id="Layer_2">
</g>
<g id="Layer_1">
	<path id="XMLID_19_" class="st0" d="M166.3,234.5c-8,2.1-16.1,4.1-24.1,6.2v-1.6H97.1c-7.2-0.2-13.1-4.7-20-5.9
		c-2.9,3-6.6,1.3-9.9,1.9c17.4,35.2,34.7,70.4,52.9,107.2c15.4-30.7,29.8-59.3,44-87.9c3.2-6.4,6.1-12.8,9.1-19.3
		C170.9,235,168.6,234.7,166.3,234.5z"/>
	<path id="XMLID_23_" class="st1" d="M99.4,238c0,4.8,0,8.9,0,12.7l0,0c0,0.1,0,0.2,0,0.2s0,0.2,0,0.2l0,0c0,3.8,0,7.9,0,12.7
		c14.5-12.3,28.8-12.6,43.4,0.1c0-4.9,0-9,0-12.8c0-0.2,0-0.3,0-0.5c0-3.7,0-7.8,0-12.8C128.2,250.6,113.9,250.3,99.4,238z"/>
	<circle id="XMLID_5_" class="st2" cx="121.1" cy="139.5" r="105.5"/>
	<ellipse id="XMLID_10_" class="st3" cx="121.1" cy="470.1" rx="114.8" ry="34.4"/>
	<path id="XMLID_2964_" class="st2" d="M30.8,367.4c8.4,0,16.9,0,25.3,0c0.2,8.3-4.7,12.4-12.2,12.6
		C36.1,380.2,30.7,376.3,30.8,367.4z"/>
	<path id="XMLID_7_" class="st4" d="M217.9,360.7c0,4.7,0.4,6.7-3,6.7c-9,0-19.8,0-28.8-0.1c-2.6,0.4-2.4,2.5-2.4,4.3
		c0.1,23.3,0.2,46.7,0.4,70c-0.5,7.6-1.1,15.2,0.3,22.8c-19.2-0.1-38.5-0.1-57.7-0.2c0.1-9.8,0.2-19.6,0.2-29.5
		c0-3.1,0.6-6.5-4.4-6.4c-4.7,0-4.8,2.9-4.8,6.3c0.1,9.8,0.1,19.6,0.1,29.5c-19.9,0.1-39.8,0.2-59.7,0.3c1-7,0.8-14,0.2-21
		c0.1-23.6,0.3-47.1,0.3-70.7c0-2.6,0.8-6.3-4.1-5.4c-8.4,0-16.9,0-25.3,0c-4.2,0-6-1.5-5.9-6.2c0.2-40.1,0.2-80.2,0-120.3
		c0-5.5,2.4-6.1,6.9-6c12.4,0.2,24.8,0.2,37.2,0.2c17.1,34.6,34.1,69.2,52,105.3c15.1-30.1,29.2-58.2,43.3-86.3
		c3.1-6.2,6-12.6,8.9-18.9c13.7-0.1,27.3-0.1,41-0.5c4.8-0.1,6.7,1.1,6.6,6.3c-0.3,22.9-0.3,45.7-0.4,68.6"/>
	<path id="XMLID_27_" class="st5" d="M33.3,397.2c-1.5-19.3-3.7-63.3-3.6-84c0-9.8-1.9-19.9-4.3-22.2c-2.4-2.3,7.2-9.4-7.8-18.7v0
		c0,0,0,0,0,0c0,0,0,0,0,0v0c-15,9.3-5.4,16.4-7.8,18.7c-2.4,2.2-4.4,12.4-4.3,22.2c0.1,20.7-2.1,64.6-3.6,84
		c-0.5,6.5-1.8,26-1.8,26c2.8,5.4,11.9,5.1,17.5,5.1c5.6,0,14.7,0.3,17.5-5.1C35.1,423.2,33.8,403.7,33.3,397.2z"/>
	<path id="XMLID_8_" class="st6" d="M220.4,319.2"/>
	<path id="XMLID_2962_" class="st2" d="M187.8,367.3c9,0,18,0,27.1,0.1c-0.7,7.9-6.1,12.1-13,12.5
		C194,380.5,189.6,374.9,187.8,367.3z"/>
	<g id="XMLID_14_">
		<path id="XMLID_11_" class="st4" d="M121.1,96.8H25.3c4.7,21.5,34.1,34.8,95.9,34.6c61.8,0.2,91.2-13.1,95.9-34.6H121.1z"/>
		<path id="XMLID_33_" class="st7" d="M215,69.5c-29.9-6.9-61.2-10.1-93.9-10.1c-32.6-0.1-64,3.2-93.9,10.1l-4.9,27.3l98.8,3.1
			l98.8-3.1L215,69.5z"/>
		<path id="XMLID_13_" class="st5" d="M12.2,141.4c-8.2-0.2-25.9-69,31.9-113.1C58.9,17,141.5-1.8,174.2,0.1
			c13.9,0.8,48.1,31.2,45.3,61.9c-0.2,2.6-4.2,9.5-4.2,9.5s-53.4-7-91.4-3.2c-14.4,1.5-49.2,3.8-70,19.8
			C28.5,107.6,24.7,141.7,12.2,141.4z"/>
	</g>
	<path id="XMLID_34_" class="st8" d="M121.1,70.7c-6.1,0-11,4.9-11,11c0,6.1,4.9,11,11,11c6.1,0,11-4.9,11-11
		C132.1,75.6,127.2,70.7,121.1,70.7z M121.1,86.3c-2.5,0-4.6-2.1-4.6-4.6c0-2.5,2.1-4.6,4.6-4.6c2.5,0,4.6,2.1,4.6,4.6
		C125.7,84.2,123.7,86.3,121.1,86.3z"/>
	<path id="XMLID_12_" class="st5" d="M19,274h-2.9c-0.6,0-1.2-0.5-1.2-1.2V136.4c0-0.6,0.5-1.2,1.2-1.2H19c0.6,0,1.2,0.5,1.2,1.2
		v136.5C20.1,273.5,19.6,274,19,274z"/>
	<circle id="XMLID_9_" class="st5" cx="17.5" cy="225.5" r="5"/>
	<path id="XMLID_40_" class="st8" d="M13.8,208.4c2.2,1.9,4.3,1.2,6.4-0.2c2.8,0.9,4.5,2.4,2.9,5.6c-1.8-0.4-3.3,0-3.8,2
		c-0.8,3.1-2.6,1.9-4.4,1.2c-1.2-0.5-1.4-2.2-3.1-2.3c-0.7,2,0.8,2.9,1.9,4c2.7,2.9,5.4,0.2,8-0.1c-0.2,0.6-0.5,1.3-0.7,1.9
		c-2.8,0.6-5.5-0.4-8.2-0.5C9,214.7,9.3,210.5,13.8,208.4z M21.9,210.6c-3-1.5-4.3,0.4-5.5,2c-0.7,0.9-2.3,2.2-1.1,3.3
		c1.5,1.4,2.1-0.6,2.9-1.4C19.5,213.4,20.5,212.2,21.9,210.6z"/>
	<path id="XMLID_38_" class="st1" d="M21.8,218.5c-2.7,0.3-5.3,3-8,0.1c-1.1-1.1-2.6-2-1.9-4c1.6,0.1,1.8,1.8,3.1,2.3
		c1.8,0.6,3.6,1.9,4.4-1.2c0.5-1.9,1.9-2.4,3.8-2C25.5,216.2,24.8,217.7,21.8,218.5z"/>
	<path id="XMLID_37_" class="st1" d="M21.9,210.6c-1.4,1.5-2.5,2.8-3.6,3.9c-0.8,0.8-1.4,2.9-2.9,1.4c-1.2-1.2,0.3-2.4,1.1-3.3
		C17.7,211,19,209.1,21.9,210.6z"/>
	<path id="XMLID_46_" class="st8" d="M13.8,195.9c2.2,1.9,4.3,1.2,6.4-0.2c2.8,0.9,4.5,2.4,2.9,5.6c-1.8-0.4-3.3,0-3.8,2
		c-0.8,3.1-2.6,1.9-4.4,1.2c-1.2-0.5-1.4-2.2-3.1-2.3c-0.7,2,0.8,2.9,1.9,4c2.7,2.9,5.4,0.2,8-0.1c-0.2,0.6-0.5,1.3-0.7,1.9
		c-2.8,0.6-5.5-0.4-8.2-0.5C9,202.2,9.3,198,13.8,195.9z M21.9,198.1c-3-1.5-4.3,0.4-5.5,2c-0.7,0.9-2.3,2.2-1.1,3.3
		c1.5,1.4,2.1-0.6,2.9-1.4C19.5,200.9,20.5,199.7,21.9,198.1z"/>
	<path id="XMLID_45_" class="st1" d="M21.8,206c-2.7,0.3-5.3,3-8,0.1c-1.1-1.1-2.6-2-1.9-4c1.6,0.1,1.8,1.8,3.1,2.3
		c1.8,0.6,3.6,1.9,4.4-1.2c0.5-1.9,1.9-2.4,3.8-2C25.5,203.7,24.8,205.2,21.8,206z"/>
	<path id="XMLID_44_" class="st1" d="M21.9,198.1c-1.4,1.5-2.5,2.8-3.6,3.9c-0.8,0.8-1.4,2.9-2.9,1.4c-1.2-1.2,0.3-2.4,1.1-3.3
		C17.7,198.5,19,196.6,21.9,198.1z"/>
	<path id="XMLID_52_" class="st8" d="M13.8,183.4c2.2,1.9,4.3,1.2,6.4-0.2c2.8,0.9,4.5,2.4,2.9,5.6c-1.8-0.4-3.3,0-3.8,2
		c-0.8,3.1-2.6,1.9-4.4,1.2c-1.2-0.5-1.4-2.2-3.1-2.3c-0.7,2,0.8,2.9,1.9,4c2.7,2.9,5.4,0.2,8-0.1c-0.2,0.6-0.5,1.3-0.7,1.9
		c-2.8,0.6-5.5-0.4-8.2-0.5C9,189.7,9.3,185.5,13.8,183.4z M21.9,185.6c-3-1.5-4.3,0.4-5.5,2c-0.7,0.9-2.3,2.2-1.1,3.3
		c1.5,1.4,2.1-0.6,2.9-1.4C19.5,188.4,20.5,187.1,21.9,185.6z"/>
	<path id="XMLID_51_" class="st1" d="M21.8,193.5c-2.7,0.3-5.3,3-8,0.1c-1.1-1.1-2.6-2-1.9-4c1.6,0.1,1.8,1.8,3.1,2.3
		c1.8,0.6,3.6,1.9,4.4-1.2c0.5-1.9,1.9-2.4,3.8-2C25.5,191.2,24.8,192.7,21.8,193.5z"/>
	<path id="XMLID_50_" class="st1" d="M21.9,185.6c-1.4,1.5-2.5,2.8-3.6,3.9c-0.8,0.8-1.4,2.9-2.9,1.4c-1.2-1.2,0.3-2.4,1.1-3.3
		C17.7,186,19,184.1,21.9,185.6z"/>
	<path id="XMLID_58_" class="st8" d="M13.8,158.4c2.2,1.9,4.3,1.2,6.4-0.2c2.8,0.9,4.5,2.4,2.9,5.6c-1.8-0.4-3.3,0-3.8,2
		c-0.8,3.1-2.6,1.9-4.4,1.2c-1.2-0.5-1.4-2.2-3.1-2.3c-0.7,2,0.8,2.9,1.9,4c2.7,2.9,5.4,0.2,8-0.1c-0.2,0.6-0.5,1.3-0.7,1.9
		c-2.8,0.6-5.5-0.4-8.2-0.5C9,164.7,9.3,160.6,13.8,158.4z M21.9,160.7c-3-1.5-4.3,0.4-5.5,2c-0.7,0.9-2.3,2.2-1.1,3.3
		c1.5,1.4,2.1-0.6,2.9-1.4C19.5,163.4,20.5,162.2,21.9,160.7z"/>
	<path id="XMLID_57_" class="st1" d="M21.8,168.6c-2.7,0.3-5.3,3-8,0.1c-1.1-1.1-2.6-2-1.9-4c1.6,0.1,1.8,1.8,3.1,2.3
		c1.8,0.6,3.6,1.9,4.4-1.2c0.5-1.9,1.9-2.4,3.8-2C25.5,166.2,24.8,167.7,21.8,168.6z"/>
	<path id="XMLID_56_" class="st1" d="M21.9,160.7c-1.4,1.5-2.5,2.8-3.6,3.9c-0.8,0.8-1.4,2.9-2.9,1.4c-1.2-1.2,0.3-2.4,1.1-3.3
		C17.7,161.1,19,159.2,21.9,160.7z"/>
	<path id="XMLID_448_" class="st8" d="M13.8,170.9c2.2,1.9,4.3,1.2,6.4-0.2c2.8,0.9,4.5,2.4,2.9,5.6c-1.8-0.4-3.3,0-3.8,2
		c-0.8,3.1-2.6,1.9-4.4,1.2c-1.2-0.5-1.4-2.2-3.1-2.3c-0.7,2,0.8,2.9,1.9,4c2.7,2.9,5.4,0.2,8-0.1c-0.2,0.6-0.5,1.3-0.7,1.9
		c-2.8,0.6-5.5-0.4-8.2-0.5C9,177.2,9.3,173.1,13.8,170.9z M21.9,173.2c-3-1.5-4.3,0.4-5.5,2c-0.7,0.9-2.3,2.2-1.1,3.3
		c1.5,1.4,2.1-0.6,2.9-1.4C19.5,175.9,20.5,174.7,21.9,173.2z"/>
	<path id="XMLID_440_" class="st1" d="M21.8,181.1c-2.7,0.3-5.3,3-8,0.1c-1.1-1.1-2.6-2-1.9-4c1.6,0.1,1.8,1.8,3.1,2.3
		c1.8,0.6,3.6,1.9,4.4-1.2c0.5-1.9,1.9-2.4,3.8-2C25.5,178.7,24.8,180.2,21.8,181.1z"/>
	<path id="XMLID_359_" class="st1" d="M21.9,173.2c-1.4,1.5-2.5,2.8-3.6,3.9c-0.8,0.8-1.4,2.9-2.9,1.4c-1.2-1.2,0.3-2.4,1.1-3.3
		C17.7,173.6,19,171.7,21.9,173.2z"/>
	<path id="XMLID_15_" class="st9" d="M166.7,174.5c-7.1-4.8-14.1-9.9-21.6-13.9c-9.8-5.2-17.1-3-24,6.7c-6.9-9.6-14.2-11.9-24-6.7
		c-7.5,4-14.5,9.1-21.6,13.9c-8.2,5.5-16.5,8.5-26.6,1.1c15.4,28.9,52.1,30.3,72.2,4.3c20.1,26,56.8,24.6,72.2-4.3
		C183.2,183,174.9,180,166.7,174.5z"/>
	<path id="XMLID_16_" class="st9" d="M118.3,475.8H56.6c-1.6,0-2.9-1.3-2.9-2.9V467c0-1.6,1.3-2.9,2.9-2.9h61.7
		c1.6,0,2.9,1.3,2.9,2.9v5.9C121.2,474.5,119.9,475.8,118.3,475.8z"/>
	<path id="XMLID_18_" class="st9" d="M186.8,475.8h-61.7c-1.6,0-2.9-1.3-2.9-2.9V467c0-1.6,1.3-2.9,2.9-2.9h61.7
		c1.6,0,2.9,1.3,2.9,2.9v5.9C189.7,474.5,188.4,475.8,186.8,475.8z"/>
	<rect id="XMLID_25_" x="53.7" y="469.6" class="st9" width="67.4" height="6.2"/>
	<rect id="XMLID_20_" x="122.3" y="469.6" class="st9" width="67.4" height="6.2"/>
	<g id="XMLID_17_">
		<ellipse id="XMLID_28_" class="st9" cx="97.9" cy="145.6" rx="3.9" ry="4.8"/>
		<ellipse id="XMLID_26_" class="st9" cx="144.4" cy="145.6" rx="3.9" ry="4.8"/>
	</g>
</g>
</svg>
