<?xml version="1.0" encoding="utf-8"?>
<!-- Generator: Adobe Illustrator 19.0.0, SVG Export Plug-In . SVG Version: 6.00 Build 0)  -->
<svg version="1.1" id="Layer_1" xmlns="http://www.w3.org/2000/svg" xmlns:xlink="http://www.w3.org/1999/xlink" x="0px" y="0px"
	 viewBox="181.8 196.6 217.1 400" style="enable-background:new 181.8 196.6 217.1 400;" xml:space="preserve">
<style type="text/css">
	.st0{fill:#EDEDED;}
</style>
<g>
	<path class="st0" d="M389.6,196.6c6.8,0,9.3,5.7,9.3,14.6l-0.4,43.3c0,13-0.3,20-11.4,20.2c-12.4,0.2-24.7,0.2-37.1,0.2
		c-2.7,0-5.2,0.5-7.8,1.1c-7.2,1.9-12.7,7.9-14,15.2c-0.8,4.4-0.9,8.9-0.9,13.4c0,10.3,0.1,20.6-0.1,30.8c-0.1,3.5,0.9,4.7,4.6,4.7
		c17.8-0.2,35.7-0.1,53.5-0.1c7.9,0,11.2,3,11.3,11c0.1,20.2,0.1,40.3,0,60.5c-0.1,8.2-3.4,11.4-11.9,11.4c-17.3,0.1-34.6,0-51.9,0
		c-3,0-5.4,2.4-5.4,5.4c0,51.8,0,103.6,0,155.4c0,2.7,0.2,5.5-0.9,8c-1.3,3-4.6,4.7-7.9,4.8c-22.5,0.1-45.1,0.1-67.6,0
		c-4.8,0-7.6-2.6-8.5-7.5c-0.4-2.2-0.5-4.4-0.5-6.6c0-51.1,0-102.3,0-153.4c0-3.3-2.7-6.1-6.1-6.1c-13,0-26,0-39,0
		c-1.3,0-2.6,0-3.9,0c-6.4-0.3-11.2-5.9-11.2-12.2c-0.1-13,0-25.9,0-38.9c0-6.9-0.1-13.8,0-20.7c0.1-8,3.3-11.1,11.1-11.1
		c14.7,0,29.4-0.1,44.1,0.1c4.1,0.1,5-1.3,5-5.2c0-16-0.5-32,0.5-48c1.4-24,8.8-45.7,25.6-63.4c13.6-14.4,30.8-22.3,50.2-25.6
		c2.4-0.4,4.8-0.9,7.3-1.3L389.6,196.6L389.6,196.6z"/>
</g>
</svg>
