<?xml version="1.0" encoding="utf-8"?>
<!-- Generator: Adobe Illustrator 19.0.0, SVG Export Plug-In . SVG Version: 6.00 Build 0)  -->
<svg version="1.1" id="Layer_1" xmlns="http://www.w3.org/2000/svg" xmlns:xlink="http://www.w3.org/1999/xlink" x="0px" y="0px"
	 viewBox="0 0 439 65" style="enable-background:new 0 0 439 65;" xml:space="preserve">
<style type="text/css">
	.st0{fill:none;stroke:#000000;stroke-width:3.813;}
</style>
<path d="M23.7,50.4V33.9c0-7.3-3.6-11-10.7-11c-3.8,0-6.4,1.3-8.1,4V1.8H2.3v48.5H5V32.7c0-2.2,0.8-3.9,2.4-5.2c1.6-1.3,3.5-2,5.6-2
	c5.3,0,8,2.9,8,8.6v16.3H23.7z"/>
<path class="st0" d="M23.7,50.4V33.9c0-7.3-3.6-11-10.7-11c-3.8,0-6.4,1.3-8.1,4V1.8H2.3v48.5H5V32.7c0-2.2,0.8-3.9,2.4-5.2
	c1.6-1.3,3.5-2,5.6-2c5.3,0,8,2.9,8,8.6v16.3H23.7z"/>
<path d="M76.7,36.9c0,3.1-1.1,5.8-3.3,8.1c-2.2,2.2-4.9,3.3-8,3.3c-3.1,0-5.8-1.1-8-3.3c-2.2-2.2-3.3-4.9-3.3-8
	c0-3.1,1.1-5.8,3.3-8.1c2.2-2.2,4.9-3.3,8-3.3c3.1,0,5.8,1.1,8,3.3C75.6,31.1,76.7,33.8,76.7,36.9z M78.9,50.4V23.3h-2.7V28
	c-2.9-3.4-6.5-5.1-10.8-5.1c-3.9,0-7.3,1.4-10,4.1c-2.7,2.7-4,6-4,9.9c0,3.9,1.4,7.3,4.1,10c2.7,2.7,6,4,9.9,4c4.4,0,8-1.7,10.8-5.1
	v4.7H78.9z"/>
<path class="st0" d="M76.7,36.9c0,3.1-1.1,5.8-3.3,8.1c-2.2,2.2-4.9,3.3-8,3.3c-3.1,0-5.8-1.1-8-3.3c-2.2-2.2-3.3-4.9-3.3-8
	c0-3.1,1.1-5.8,3.3-8.1c2.2-2.2,4.9-3.3,8-3.3c3.1,0,5.8,1.1,8,3.3C75.6,31.1,76.7,33.8,76.7,36.9z M78.9,50.4V23.3h-2.7V28
	c-2.9-3.4-6.5-5.1-10.8-5.1c-3.9,0-7.3,1.4-10,4.1c-2.7,2.7-4,6-4,9.9c0,3.9,1.4,7.3,4.1,10c2.7,2.7,6,4,9.9,4c4.4,0,8-1.7,10.8-5.1
	v4.7H78.9z"/>
<path d="M133.9,36.9c0,3.1-1.1,5.8-3.3,8.1c-2.2,2.2-4.9,3.3-8,3.3c-3.1,0-5.8-1.1-8-3.3c-2.2-2.2-3.3-4.9-3.3-8
	c0-3.1,1.1-5.8,3.3-8.1c2.2-2.2,4.9-3.3,8-3.3c3.1,0,5.8,1.1,8,3.3C132.8,31.1,133.9,33.8,133.9,36.9z M136.6,36.9
	c0-3.9-1.4-7.3-4.1-10c-2.7-2.7-6-4-9.9-4c-4.6,0-8.4,1.8-11.1,5.5v-5.1h-2.7v39.8h2.7V45.3c2.9,3.7,6.6,5.5,11.1,5.5
	c3.9,0,7.3-1.4,10-4.1C135.2,44.1,136.6,40.8,136.6,36.9z"/>
<path class="st0" d="M133.9,36.9c0,3.1-1.1,5.8-3.3,8.1c-2.2,2.2-4.9,3.3-8,3.3c-3.1,0-5.8-1.1-8-3.3c-2.2-2.2-3.3-4.9-3.3-8
	c0-3.1,1.1-5.8,3.3-8.1c2.2-2.2,4.9-3.3,8-3.3c3.1,0,5.8,1.1,8,3.3C132.8,31.1,133.9,33.8,133.9,36.9z M136.6,36.9
	c0-3.9-1.4-7.3-4.1-10c-2.7-2.7-6-4-9.9-4c-4.6,0-8.4,1.8-11.1,5.5v-5.1h-2.7v39.8h2.7V45.3c2.9,3.7,6.6,5.5,11.1,5.5
	c3.9,0,7.3-1.4,10-4.1C135.2,44.1,136.6,40.8,136.6,36.9z"/>
<path d="M189.5,36.9c0,3.1-1.1,5.8-3.3,8.1c-2.2,2.2-4.9,3.3-8,3.3c-3.1,0-5.8-1.1-8-3.3c-2.2-2.2-3.3-4.9-3.3-8
	c0-3.1,1.1-5.8,3.3-8.1c2.2-2.2,4.9-3.3,8-3.3c3.1,0,5.8,1.1,8,3.3C188.4,31.1,189.5,33.8,189.5,36.9z M192.1,36.9
	c0-3.9-1.4-7.3-4.1-10c-2.7-2.7-6-4-9.9-4c-4.6,0-8.4,1.8-11.2,5.5v-5.1h-2.7v39.8h2.7V45.3c2.9,3.7,6.6,5.5,11.2,5.5
	c3.9,0,7.3-1.4,10-4.1C190.8,44.1,192.1,40.8,192.1,36.9z"/>
<path class="st0" d="M189.5,36.9c0,3.1-1.1,5.8-3.3,8.1c-2.2,2.2-4.9,3.3-8,3.3c-3.1,0-5.8-1.1-8-3.3c-2.2-2.2-3.3-4.9-3.3-8
	c0-3.1,1.1-5.8,3.3-8.1c2.2-2.2,4.9-3.3,8-3.3c3.1,0,5.8,1.1,8,3.3C188.4,31.1,189.5,33.8,189.5,36.9z M192.1,36.9
	c0-3.9-1.4-7.3-4.1-10c-2.7-2.7-6-4-9.9-4c-4.6,0-8.4,1.8-11.2,5.5v-5.1h-2.7v39.8h2.7V45.3c2.9,3.7,6.6,5.5,11.2,5.5
	c3.9,0,7.3-1.4,10-4.1C190.8,44.1,192.1,40.8,192.1,36.9z"/>
<polygon points="242.1,23.3 239.1,23.3 229.1,44.7 219,23.3 216.2,23.3 227.6,47.9 220.6,63.1 223.6,63.1 "/>
<polygon class="st0" points="242.1,23.3 239.1,23.3 229.1,44.7 219,23.3 216.2,23.3 227.6,47.9 220.6,63.1 223.6,63.1 "/>
<path d="M287,48.5v-3.3c-2.4,2.1-5.1,3.1-8.3,3.1c-3.3,0-6.1-1.1-8.2-3.2c-2.1-2.1-3.2-4.9-3.2-8.2c0-3.4,1.1-6.1,3.2-8.3
	c2.1-2.1,4.8-3.1,8.2-3.1c1.5,0,3.1,0.3,4.7,0.9l1.8,1l1.7,1.1v-3.2c-2.1-1.6-4.8-2.4-8.3-2.4c-4,0-7.4,1.3-10,4c-2.7,2.7-4,6-4,10
	s1.3,7.4,4,10c2.7,2.7,6,4,10,4C281.8,50.9,284.6,50.1,287,48.5z"/>
<path class="st0" d="M287,48.5v-3.3c-2.4,2.1-5.1,3.1-8.3,3.1c-3.3,0-6.1-1.1-8.2-3.2c-2.1-2.1-3.2-4.9-3.2-8.2
	c0-3.4,1.1-6.1,3.2-8.3c2.1-2.1,4.8-3.1,8.2-3.1c1.5,0,3.1,0.3,4.7,0.9l1.8,1l1.7,1.1v-3.2c-2.1-1.6-4.8-2.4-8.3-2.4
	c-4,0-7.4,1.3-10,4c-2.7,2.7-4,6-4,10s1.3,7.4,4,10c2.7,2.7,6,4,10,4C281.8,50.9,284.6,50.1,287,48.5z"/>
<path d="M335.7,36.9c0,3.1-1.1,5.8-3.3,8.1c-2.2,2.2-4.9,3.3-8,3.3c-3.1,0-5.8-1.1-8-3.3c-2.2-2.2-3.3-4.9-3.3-8
	c0-3.1,1.1-5.8,3.3-8.1c2.2-2.2,4.9-3.3,8-3.3c3.1,0,5.8,1.1,8,3.3C334.6,31.1,335.7,33.8,335.7,36.9z M337.9,50.4V23.3h-2.7V28
	c-2.9-3.4-6.5-5.1-10.8-5.1c-3.9,0-7.3,1.4-10,4.1c-2.7,2.7-4,6-4,9.9c0,3.9,1.4,7.3,4.1,10c2.7,2.7,6,4,9.9,4c4.4,0,8-1.7,10.8-5.1
	v4.7H337.9z"/>
<path class="st0" d="M335.7,36.9c0,3.1-1.1,5.8-3.3,8.1c-2.2,2.2-4.9,3.3-8,3.3c-3.1,0-5.8-1.1-8-3.3c-2.2-2.2-3.3-4.9-3.3-8
	c0-3.1,1.1-5.8,3.3-8.1c2.2-2.2,4.9-3.3,8-3.3c3.1,0,5.8,1.1,8,3.3C334.6,31.1,335.7,33.8,335.7,36.9z M337.9,50.4V23.3h-2.7V28
	c-2.9-3.4-6.5-5.1-10.8-5.1c-3.9,0-7.3,1.4-10,4.1c-2.7,2.7-4,6-4,9.9c0,3.9,1.4,7.3,4.1,10c2.7,2.7,6,4,9.9,4c4.4,0,8-1.7,10.8-5.1
	v4.7H337.9z"/>
<path d="M383.7,43c0-2.5-0.9-4.4-2.8-5.8c-0.5-0.3-1.2-0.7-2.2-1.2c-1-0.5-2.2-1-3.7-1.5c-1.7-0.6-3-1.2-3.7-1.8
	c-1-0.8-1.4-1.8-1.4-3c0-2.8,1.6-4.1,4.7-4.1c2.3,0,4.2,0.7,5.7,2.2l2-1.7c-2.1-2.1-4.7-3.1-7.7-3.1c-2.2,0-4,0.7-5.3,2
	c-1.4,1.3-2.1,2.9-2.1,4.7c0,2.1,0.7,3.8,2.1,4.9c1,0.8,2.5,1.6,4.7,2.4c1.2,0.4,2.2,0.8,3,1.2c0.8,0.3,1.5,0.6,1.9,0.9
	c1.4,1.1,2.2,2.5,2.2,4c0,3.5-2.1,5.2-6.2,5.2c-1.9,0-3.4-0.4-4.5-1.2c-1.1-0.7-1.9-1.8-2.7-3.1l-2.3,1.4c2.1,3.8,5.2,5.7,9.4,5.7
	c2.4,0,4.6-0.7,6.3-2.2C382.9,47.2,383.7,45.3,383.7,43z"/>
<path class="st0" d="M383.7,43c0-2.5-0.9-4.4-2.8-5.8c-0.5-0.3-1.2-0.7-2.2-1.2c-1-0.5-2.2-1-3.7-1.5c-1.7-0.6-3-1.2-3.7-1.8
	c-1-0.8-1.4-1.8-1.4-3c0-2.8,1.6-4.1,4.7-4.1c2.3,0,4.2,0.7,5.7,2.2l2-1.7c-2.1-2.1-4.7-3.1-7.7-3.1c-2.2,0-4,0.7-5.3,2
	c-1.4,1.3-2.1,2.9-2.1,4.7c0,2.1,0.7,3.8,2.1,4.9c1,0.8,2.5,1.6,4.7,2.4c1.2,0.4,2.2,0.8,3,1.2c0.8,0.3,1.5,0.6,1.9,0.9
	c1.4,1.1,2.2,2.5,2.2,4c0,3.5-2.1,5.2-6.2,5.2c-1.9,0-3.4-0.4-4.5-1.2c-1.1-0.7-1.9-1.8-2.7-3.1l-2.3,1.4c2.1,3.8,5.2,5.7,9.4,5.7
	c2.4,0,4.6-0.7,6.3-2.2C382.9,47.2,383.7,45.3,383.7,43z"/>
<path d="M434.4,33.7h-22c1.8-5.5,5.4-8.3,11-8.3c2.7,0,5,0.7,7.1,2.2C432.6,29.2,433.9,31.2,434.4,33.7z M437.4,36.3
	c0-4-1.3-7.2-4-9.7c-2.6-2.5-5.9-3.7-10-3.7c-4.1,0-7.4,1.3-10.1,4c-2.6,2.6-3.9,6-3.9,10c0,4,1.3,7.4,4,10c2.6,2.7,6,4,10,4
	c1.7,0,3.2-0.2,4.6-0.7c3.5-1.1,6.2-3.3,7.9-6.6l-2.4-1.1c-1.5,2.4-3.2,4-5.1,4.8c-1.5,0.6-3.1,0.9-5,0.9c-3.6,0-6.4-1.1-8.5-3.3
	c-2-2.1-3-5.1-3-8.7H437.4z"/>
<path class="st0" d="M434.4,33.7h-22c1.8-5.5,5.4-8.3,11-8.3c2.7,0,5,0.7,7.1,2.2C432.6,29.2,433.9,31.2,434.4,33.7z M437.4,36.3
	c0-4-1.3-7.2-4-9.7c-2.6-2.5-5.9-3.7-10-3.7c-4.1,0-7.4,1.3-10.1,4c-2.6,2.6-3.9,6-3.9,10c0,4,1.3,7.4,4,10c2.6,2.7,6,4,10,4
	c1.7,0,3.2-0.2,4.6-0.7c3.5-1.1,6.2-3.3,7.9-6.6l-2.4-1.1c-1.5,2.4-3.2,4-5.1,4.8c-1.5,0.6-3.1,0.9-5,0.9c-3.6,0-6.4-1.1-8.5-3.3
	c-2-2.1-3-5.1-3-8.7H437.4z"/>
</svg>
