<?xml version="1.0" encoding="utf-8"?>
<!-- Generator: Adobe Illustrator 19.0.0, SVG Export Plug-In . SVG Version: 6.00 Build 0)  -->
<svg version="1.1" id="Layer_1" xmlns="http://www.w3.org/2000/svg" xmlns:xlink="http://www.w3.org/1999/xlink" x="0px" y="0px"
	 viewBox="0 0 595.3 841.9" style="enable-background:new 0 0 595.3 841.9;" xml:space="preserve">
<style type="text/css">
	.st0{fill:#A8A8A8;}
</style>
<g>
	<path class="st0" d="M98.1,577.8c0-104.6,0-209.2,0-313.8c1.6-8.1,4.3-15.7,9.2-22.5c8.4-11.5,20-17.7,33.8-20.4
		c104.6,0,209.2,0,313.8,0c0.9,0.2,1.8,0.4,2.6,0.6c24.8,5.5,40.6,24.9,40.6,50.3c0,99.8,0.1,199.5,0,299.3
		c0,27.5-22.2,49.7-49.7,49.7c-100.3,0.1-200.6,0.1-300.8,0c-10.4,0-20-3.3-28.5-9.2C107.2,603.5,100.7,591.8,98.1,577.8z
		 M297.4,574.4c45.8,0,91.6,0,137.4,0c10.7,0,17.4-6.3,17.4-16.7c0.1-54.3,0-108.5,0.1-162.8c0-3.3-1.3-4.3-4.4-4.3
		c-8.5,0.1-16.9,0.2-25.4,0c-3.6-0.1-4.1,1.3-3.3,4.5c3.3,12.7,4.4,25.5,3.3,38.6c-2.7,30.7-15.2,56.6-37.7,77.4
		c-29.5,27.2-64.6,37.9-104.3,32.6c-31.6-4.2-58.2-18.5-78.6-43c-25.7-30.9-33.9-66.3-24.5-105.6c1-4.1,0.7-4.4-3.7-4.4
		c-8.3,0-16.7,0-25,0c-5.9,0-5.9,0-5.9,5.8c0,53,0,105.9,0,158.9c0,13.2,5.8,19.1,19.1,19.1C207.1,574.4,252.3,574.4,297.4,574.4z
		 M297.3,342.9c-14.5-0.2-28.8,4-42.1,12.1c-38.5,23.5-48.3,75-21,110.8c23.8,31.2,68.3,40.7,102.8,21.8
		c35.2-19.2,49.9-58.9,35.6-96.1C361.4,362.7,331.4,343,297.3,342.9z M411.8,344.1c7,0,14,0.1,21.1,0c11.5-0.1,18.7-6.9,18.9-18.3
		c0.2-13.9,0.2-27.8,0-41.7c-0.2-11.2-7.4-18.1-18.6-18.2c-14.2-0.1-28.3-0.1-42.5,0c-11.4,0.1-18.8,7.5-19,18.9
		c-0.2,13.5-0.2,27,0,40.6c0.2,11.5,7.6,18.7,19,18.8C397.8,344.1,404.8,344.1,411.8,344.1z"/>
</g>
</svg>
