<?xml version="1.0" encoding="utf-8"?>
<!-- Generator: Adobe Illustrator 19.0.0, SVG Export Plug-In . SVG Version: 6.00 Build 0)  -->
<svg version="1.1" id="Layer_1" xmlns="http://www.w3.org/2000/svg" xmlns:xlink="http://www.w3.org/1999/xlink" x="0px" y="0px"
	 viewBox="0 0 595.3 841.9" style="enable-background:new 0 0 595.3 841.9;" xml:space="preserve">
<style type="text/css">
	.st0{fill:#FFFFFF;}
</style>
<path class="st0" d="M32,148.9v531h529v-531H32z M168,668.8c-34.2,0-68.3,0-102.5,0c-5.4-1.8-7.2-5.7-7.2-11.2
	c0.1-104.5,0-209.1,0.1-313.6c0-8.1,2.8-11.5,10.9-11.5c31.6-0.2,63.1-0.2,94.7,0c7.6,0,10.6,3.5,10.9,11.2c0,1,0,1.9,0,2.9
	c0,102.8,0,205.5,0,308.3C175,660.8,174.6,666.3,168,668.8z M177,265.9c-11,25.2-31,39.1-58.8,39.8c-32,0.8-57.9-19.3-65.9-50.2
	c-0.4-1.7-0.9-3.4-1.4-5.1c0-6.8,0-13.5,0-20.3c3.3-16.5,10.8-30.5,23.9-41.2c10.2-8.4,22.2-12.7,35.1-14.8c4.5,0,9,0,13.5,0
	c16.5,2.8,31.2,9.2,42.3,22.2C183.5,217,188,240.7,177,265.9z M542,668.9c-35.1-0.2-70.2-0.1-105.4-0.1c-4.7-2.1-6.6-5.9-6.6-10.8
	c0-2.6-0.1-5.2-0.1-7.7c-0.2-55.9,0.5-111.8-0.5-167.7c-0.2-8.7-1.5-17.3-3.9-25.7c-4.2-15-13.4-24.7-29.3-27.1
	c-5.9-0.9-11.9-0.8-17.8-0.3c-17.7,1.6-30,10.4-36.2,27.4c-2.7,7.5-3.8,15.3-4.9,23.1c-1.3,9-1,18-1,27c-0.1,49.6,0,99.2,0,148.8
	c0,5.7-0.9,10.7-7,13c-34.2,0-68.3,0-102.5,0c-6.1-2.2-7.1-7.1-7.1-12.8c0.1-103.6,0-207.1,0-310.7c0-9.9,2.9-12.9,13-13
	c28.8-0.1,57.7-0.1,86.5,0c9.9,0,12.8,3.1,13,13.1c0.1,4.4-0.6,8.9,0.5,13.2c1.6-0.1,2.2-1.1,3-1.9c13.7-13.2,29.9-22.2,48.2-27.4
	c21-5.9,42.3-6,63.6-2.7c21.9,3.3,42.2,10.7,58.7,26c18.8,17.4,28.5,39.8,33.9,64.3c2.9,12.9,3.9,26.1,5.5,39.1
	c0,69.6,0,139.2,0.1,208.8C546,668.2,545.4,668.9,542,668.9z"/>
</svg>
