<?xml version="1.0" encoding="utf-8"?>
<!-- Generator: Adobe Illustrator 19.0.0, SVG Export Plug-In . SVG Version: 6.00 Build 0)  -->
<svg version="1.1" xmlns="http://www.w3.org/2000/svg" xmlns:xlink="http://www.w3.org/1999/xlink" x="0px" y="0px"
	 viewBox="0 0 308.8 470.5" style="enable-background:new 0 0 308.8 470.5;" xml:space="preserve">
<style type="text/css">
	.st0{fill:#ABABAB;}
	.st1{fill:#ECD2AA;}
	.st2{fill:#5E5F61;}
	.st3{fill:#FFFFFF;}
	.st4{fill:#090908;}
	.st5{fill:#31567A;}
	.st6{fill:#877154;}
	.st7{fill:#5A4732;}
	.st8{fill:#D8BC47;}
	.st9{fill:none;stroke:#BC9161;stroke-miterlimit:10;}
	.st10{fill:#E2E2E2;}
</style>
<g id="Layer_2">
</g>
<g id="Layer_1">
	<ellipse id="XMLID_127_" class="st0" cx="149.3" cy="436.1" rx="114.8" ry="34.4"/>
	<path id="XMLID_26_" class="st1" d="M72.3,302.5c-8.8,9.4-29.5,10.1-29-1.4c0.3-8,8.1-29.3,8.1-29.3l4.7-24.8h30.6l-6.4,40.2
		c0,0,1.3,1.2-5.5,11.3C73.1,301.1,73.6,301.1,72.3,302.5z"/>
	<path id="XMLID_125_" class="st2" d="M248.5,285.2"/>
	<path id="XMLID_123_" class="st3" d="M146.4,441.8H84.7c-1.6,0-2.9-1.3-2.9-2.9V433c0-1.6,1.3-2.9,2.9-2.9h61.7
		c1.6,0,2.9,1.3,2.9,2.9v5.9C149.3,440.5,148,441.8,146.4,441.8z"/>
	<path id="XMLID_122_" class="st3" d="M214.9,441.8h-61.7c-1.6,0-2.9-1.3-2.9-2.9V433c0-1.6,1.3-2.9,2.9-2.9h61.7
		c1.6,0,2.9,1.3,2.9,2.9v5.9C217.8,440.5,216.5,441.8,214.9,441.8z"/>
	<rect id="XMLID_121_" x="81.9" y="435.6" class="st3" width="67.4" height="6.2"/>
	<rect id="XMLID_120_" x="150.4" y="435.6" class="st3" width="67.4" height="6.2"/>
	<circle id="XMLID_11_" class="st1" cx="149.3" cy="105.5" r="105.5"/>
	<path id="XMLID_115_" class="st4" d="M194.8,140.5c-7.1-4.8-14.1-9.9-21.6-13.9c-9.8-5.2-17.1-3-24,6.7c-6.9-9.6-14.2-11.9-24-6.7
		c-7.5,4-14.5,9.1-21.6,13.9c-8.2,5.5-16.5,8.5-26.6,1.1c15.4,28.9,52.1,30.3,72.2,4.3c20.1,26,56.8,24.6,72.2-4.3
		C211.4,149,203,146,194.8,140.5z"/>
	<g id="XMLID_112_">
		<ellipse id="XMLID_114_" class="st4" cx="126" cy="111.6" rx="3.9" ry="4.8"/>
		<ellipse id="XMLID_113_" class="st4" cx="172.5" cy="111.6" rx="3.9" ry="4.8"/>
	</g>
	<path id="XMLID_5_" class="st4" d="M229.4,29c-5-9.9-14.9-18.8-24.3-16.7c-6.9-9.6-67.9-20.8-102.6-1.4
		c-8.6,4.8-38.3,25.8-57.3,11.3c0,52,112.3,59.5,159.9,2.6c20.1,26,25.5,37.1,40.2,36.8C242.1,55.1,234.6,39.2,229.4,29z"/>
	<path id="XMLID_8_" class="st4" d="M121.8,8.8c-9.4,3.1-43.2,22.1-59.2,4.3C52.9,64.2,159.6-3.8,121.8,8.8z"/>
	<path id="XMLID_111_" class="st4" d="M131.7,14.7c-6.9,1.3-32.7,11.6-42.3-2.6C77.6,47.5,159.6,9.4,131.7,14.7z"/>
	<path id="XMLID_7_" class="st4" d="M215.3,0c0,0-8.4,13.9-32.3,15.8C205.3,38.5,215.3,0,215.3,0z"/>
	<path id="XMLID_20_" class="st5" d="M214.2,333.3"/>
	<path id="XMLID_10_" class="st5" d="M86.6,338.9c-0.1,23.6-0.2,47.1-0.3,70.7c0.6,7,0.9,14-0.2,21c19.9-0.1,39.8-0.2,59.7-0.3
		c0-9.8,0-19.6-0.1-29.5c0-3.4,0.1-6.3,4.8-6.3c5.1,0,4.5,3.3,4.4,6.4c-0.1,9.8-0.2,19.6-0.2,29.5c19.2,0.1,38.5,0.1,57.7,0.2
		c-1.4-7.6-0.8-15.2-0.3-22.8c-0.1-23.3-0.3-46.7-0.4-70c0-1.8,0.1-4.3,0.1-4.3H86.7C86.7,333.3,86.6,336.6,86.6,338.9z"/>
	<g id="XMLID_13_">
		<path id="XMLID_16_" d="M86.7,336.6C86.7,336.6,86.7,336.6,86.7,336.6C86.7,336.6,86.7,336.6,86.7,336.6z"/>
		<path id="XMLID_17_" d="M86.7,337.1C86.7,337.1,86.7,337.1,86.7,337.1C86.7,337.1,86.7,337.1,86.7,337.1z"/>
		<path id="XMLID_18_" d="M86.7,338.3C86.7,338.3,86.7,338.3,86.7,338.3C86.7,338.3,86.7,338.3,86.7,338.3z"/>
		<path id="XMLID_19_" d="M86.3,334.6C86.3,334.6,86.3,334.6,86.3,334.6C86.3,334.6,86.3,334.6,86.3,334.6z"/>
		<path id="XMLID_21_" d="M86.1,334.3C86.1,334.3,86.1,334.3,86.1,334.3C86.1,334.3,86.1,334.3,86.1,334.3z"/>
	</g>
	<path id="XMLID_15_" d="M149.3,211.1c-16.5,0-32.1-3.8-46-10.5c-2.4,1-5.2,0.1-7.8,0.5c0,0,0,0,0,0c-12.4,0-24.8,0-37.2-0.2
		c-4.5-0.1-6.9,0.5-6.9,6c0.1,17.6,0.1,19.6,0.2,19.8c0,0.3-0.1,2.8-0.2,19.8c0,4.7,1.7,6.3,5.9,6.2c8.4,0,20.4,0,28.8,0
		c0.7-0.1,0.1,80.6,0.5,80.6h62.6V211.1z"/>
	<path id="XMLID_23_" d="M149.3,211.1c16.5,0,32.1-3.8,46-10.5c2.4,1,5.2,0.1,7.8,0.5c0,0,0,0,0,0c12.4,0,24.8,0,37.2-0.2
		c4.5-0.1,6.9,0.5,6.9,6c-0.1,17.6-0.1,19.6-0.2,19.8c0,0.3,0.1,2.8,0.2,19.8c0,4.7-1.7,6.3-5.9,6.2c-8.4,0-20.4,0-28.8,0
		c-0.7-0.1-0.1,80.6-0.5,80.6h-62.6V211.1z"/>
	<g id="XMLID_109_">
		<path id="XMLID_731_" class="st6" d="M151.4,298.4c2.6-5.5,5.5-10.8,9.4-15.5c7.4-9,16.7-11.7,27.8-8.6c7.1,2,13.7,5.1,19.6,9.4
			c8.4,6.1,16.8,6.9,26.4,3.2c11.6-4.4,23.8-5.9,36.2-3.2c12.3,2.6,23.4,7.5,30.7,18.4c5.6,8.5,7.6,18,7.1,28
			c-1.2,21.8-7.6,42-20.9,59.5c-10.7,14-24.8,20.5-42.6,16.5c-14.1-3.1-25.8-10.4-35-21.6c-3-3.7-6-7.5-8.9-11.3
			c-3.3-4.4-7.5-6.9-13.1-7.3c-6.2-0.5-12.3-0.9-18.4-2c-5.2-1-10.2-2.6-14.9-5.2c-7.7-4.4-11.1-11.4-11.9-19.9
			c-0.5-6,0-12,1.3-17.8L151.4,298.4z"/>
		<circle id="XMLID_104_" class="st7" cx="195.6" cy="325.5" r="25.1"/>
		<circle id="XMLID_84_" cx="195.6" cy="325.5" r="22.3"/>
		<g id="XMLID_70_">
			<path id="XMLID_80_" class="st8" d="M39.5,262.1c1.6,0.5,3.3-0.4,3.8-1.9s-0.6-2.6-2.2-3.1c-1.6-0.5-3.1-0.3-3.6,1.3
				C37,259.9,37.9,261.6,39.5,262.1z"/>
			<path id="XMLID_71_" class="st8" d="M37.4,263.8c0.8-0.6,1.4-2.1,1.8-4l0.9,0.3l0.9,0.3c-0.7,1.7-1.2,3.3-0.8,4.3l-1.4-0.5
				L37.4,263.8z"/>
		</g>
		<g id="XMLID_67_">
			<path id="XMLID_69_" class="st8" d="M29.3,258.5c1.6,0.5,3.3-0.4,3.8-1.9c0.5-1.6-0.6-2.6-2.2-3.1s-3.1-0.3-3.6,1.3
				C26.9,256.3,27.8,258,29.3,258.5z"/>
			<path id="XMLID_68_" class="st8" d="M27.3,260.2c0.8-0.6,1.4-2.1,1.8-4l0.9,0.3l0.9,0.3c-0.7,1.7-1.2,3.3-0.8,4.3l-1.4-0.5
				L27.3,260.2z"/>
		</g>
		<g id="XMLID_64_">
			<path id="XMLID_66_" class="st8" d="M19.1,255.2c1.6,0.5,3.3-0.4,3.8-1.9c0.5-1.6-0.6-2.6-2.2-3.1s-3.1-0.3-3.6,1.3
				C16.6,253,17.5,254.7,19.1,255.2z"/>
			<path id="XMLID_65_" class="st8" d="M17,256.9c0.8-0.6,1.4-2.1,1.8-4l0.9,0.3l0.9,0.3c-0.7,1.7-1.2,3.3-0.8,4.3l-1.4-0.5
				L17,256.9z"/>
		</g>
		<g id="XMLID_39_">
			<path id="XMLID_49_" class="st8" d="M32,285.2c1.6,0.5,2.5,2.2,1.9,3.8s-2,1.8-3.6,1.3s-2.7-1.5-2.2-3.1
				C28.7,285.6,30.4,284.7,32,285.2z"/>
			<path id="XMLID_43_" class="st8" d="M31.3,282.7c0.4,0.9-0.1,2.5-0.8,4.3l0.9,0.3l0.9,0.3c0.5-1.8,1-3.4,1.8-4l-1.4-0.5
				L31.3,282.7z"/>
		</g>
		<g id="XMLID_4_">
			<path id="XMLID_29_" class="st8" d="M21.7,282.3c1.6,0.5,2.5,2.2,1.9,3.8c-0.5,1.6-2,1.8-3.6,1.3c-1.6-0.5-2.7-1.5-2.2-3.1
				C18.4,282.6,20.1,281.7,21.7,282.3z"/>
			<path id="XMLID_24_" class="st8" d="M20.9,279.7c0.4,0.9-0.1,2.5-0.8,4.3l0.9,0.3l0.9,0.3c0.5-1.8,1-3.4,1.8-4l-1.4-0.5
				L20.9,279.7z"/>
		</g>
		<g id="XMLID_3_">
			<path id="XMLID_36_" class="st8" d="M11.4,278.9c1.6,0.5,2.5,2.2,1.9,3.8c-0.5,1.6-2,1.8-3.6,1.3s-2.7-1.5-2.2-3.1
				S9.8,278.4,11.4,278.9z"/>
			<path id="XMLID_6_" class="st8" d="M10.7,276.3c0.4,0.9-0.1,2.5-0.8,4.3l0.9,0.3l0.9,0.3c0.5-1.8,1-3.4,1.8-4l-1.4-0.5
				L10.7,276.3z"/>
		</g>
		<path id="XMLID_74_" class="st6" d="M7.5,252.6c-0.2,1.9-1.2,3.7-2.4,5.1c-1.4,1.6-2.4,3.3-3.1,5.1l0,0c0,0,0,0.1,0,0.1
			c0,0,0,0.1,0,0.1l0,0c-0.5,1.9-0.6,3.9-0.5,6c0.2,1.9,0,3.9-1,5.5c-0.9,1.5-0.4,1.8,0.6,2.1c5.1-0.1,14.1,1.7,24,4.9
			c3.4,1.1,6.7,2.3,9.6,3.5c0.2,0.1,0.4,0.2,0.6,0.3c1.5,0.6,3,1.3,4.4,1.9c0.7,0.2,1.4,0.1,2.2-0.3c3.1-1.5,6.4-1.4,9.7-0.7
			c0.7-2.2,1.4-4.3,2.1-6.5c0.7-2.2,1.4-4.3,2.1-6.5c-3-1.4-5.7-3.2-7.4-6.2c-0.4-0.8-1-1.3-1.6-1.5c-1.5-0.3-3-0.6-4.7-1
			c-0.2,0-0.5-0.1-0.7-0.2c-3.1-0.7-6.4-1.7-9.9-2.8c-10-3.2-18.3-7.1-22.4-10.1C8.3,250.9,7.7,250.9,7.5,252.6z M15.7,265
			c-1.3-0.6-1.6-1.7-1.3-3c0.7-1.2,1.7-1.8,3-1.3c1.5,0.6,1.9,1.7,1.3,3.1C18.1,265.2,17,265.5,15.7,265z M27.7,264
			c1.3,0.5,1.7,1.6,1.3,3c-0.5,1.2-1.5,1.7-2.8,1.3c-1.4-0.4-1.9-1.5-1.5-2.8C25.1,264.1,26.2,263.5,27.7,264z M11.6,270.9
			c0.5-1.2,1.4-2,2.8-1.6c1.4,0.3,2.1,1.2,1.7,2.7c-0.3,1.5-1.3,2.2-2.9,1.8C11.8,273.3,11.4,272.2,11.6,270.9z M24.8,272.6
			c1.3,0.4,1.8,1.4,1.5,2.7c-0.5,1.4-1.5,2-2.8,1.7c-1.5-0.4-2.1-1.6-1.6-3C22.3,272.7,23.4,272.2,24.8,272.6z M36.6,278.5
			c-0.5,1.6-1.5,2.2-2.9,1.8c-1.5-0.4-2-1.7-1.5-3.1c0.4-1.2,1.6-1.8,2.9-1.3C36.4,276.4,36.9,277.4,36.6,278.5z M39.2,270.5
			c-0.4,1.1-1.4,1.6-2.8,1.2c-1.4-0.4-2-1.5-1.6-2.8c0.4-1.4,1.6-2.1,3-1.6C39.2,267.8,39.7,268.9,39.2,270.5z"/>
		<line id="XMLID_81_" class="st6" x1="53" y1="279.4" x2="149.5" y2="310.6"/>
		<path id="XMLID_82_" class="st6" d="M149.5,310.6l-5,11.6c0.2-0.6,0.1-3.5-1-4.1c-7.1-4.5-84.4-30-92.7-32.2l2.1-6.5L149.5,310.6z
			"/>
		<path id="XMLID_83_" class="st6" d="M149.5,310.6l2.7-12.4c-0.2,0.6-2,2.8-3.2,2.8c-8.4-0.5-86-25-94-28.1l-2.1,6.5L149.5,310.6z"
			/>
		<path id="XMLID_86_" class="st7" d="M259.6,322.2L246.1,364c-0.8,2.4-3.3,3.7-5.7,2.9h0c-2.4-0.8-3.7-3.3-2.9-5.7l13.5-41.8
			c0.8-2.4,3.3-3.7,5.7-2.9l0,0C259.1,317.3,260.4,319.8,259.6,322.2z"/>
		<path id="XMLID_87_" class="st7" d="M54.3,274L51,284.4c-0.3,0.8-1.1,1.2-1.9,1l0,0c-0.8-0.3-1.2-1.1-1-1.9l3.4-10.4
			c0.3-0.8,1.1-1.2,1.9-1h0C54.1,272.3,54.6,273.2,54.3,274z"/>
		<g id="XMLID_89_">
			<g id="XMLID_106_">
				<polyline id="XMLID_108_" class="st9" points="34.4,278.1 49.7,283.2 246.4,348.4 				"/>
				<circle id="XMLID_107_" class="st10" cx="246.4" cy="348.4" r="1.2"/>
			</g>
			<g id="XMLID_102_">
				<polyline id="XMLID_105_" class="st9" points="24.1,274.8 50.3,281.4 247.2,346 				"/>
				<circle id="XMLID_103_" class="st10" cx="247.2" cy="346" r="1.2"/>
			</g>
			<g id="XMLID_90_">
				<polyline id="XMLID_101_" class="st9" points="13.8,271.5 50.9,279.6 248,343.7 				"/>
				<circle id="XMLID_100_" class="st10" cx="248" cy="343.7" r="1.2"/>
			</g>
		</g>
		<g id="XMLID_88_">
			<g id="XMLID_91_">
				<polyline id="XMLID_93_" class="st9" points="37.2,269.5 52.6,274.3 250.3,336.5 				"/>
				<circle id="XMLID_92_" class="st10" cx="250.3" cy="336.5" r="1.2"/>
			</g>
			<g id="XMLID_94_">
				<polyline id="XMLID_96_" class="st9" points="26.9,266.1 52,276.1 249.5,338.9 				"/>
				<circle id="XMLID_95_" class="st10" cx="249.5" cy="338.9" r="1.2"/>
			</g>
			<g id="XMLID_97_">
				<polyline id="XMLID_99_" class="st9" points="16.6,262.8 51.4,278 248.7,341.2 				"/>
				<circle id="XMLID_98_" class="st10" cx="248.7" cy="341.2" r="1.2"/>
			</g>
		</g>
		<g id="XMLID_2_">
			<path id="XMLID_63_" class="st8" d="M11.6,270.9c0.5-1.2,1.4-2,2.8-1.6c1.4,0.3,2.1,1.2,1.7,2.7c-0.3,1.5-1.3,2.2-2.9,1.8
				C11.8,273.3,11.4,272.2,11.6,270.9z"/>
			<path id="XMLID_61_" class="st8" d="M26.3,275.3c-0.5,1.4-1.5,2-2.8,1.7c-1.5-0.4-2.1-1.6-1.6-3c0.4-1.3,1.5-1.8,2.9-1.4
				C26.1,273,26.6,274,26.3,275.3z"/>
			<path id="XMLID_55_" class="st8" d="M36.6,278.5c-0.5,1.6-1.5,2.2-2.9,1.8c-1.5-0.4-2-1.7-1.5-3.1c0.4-1.2,1.6-1.8,2.9-1.3
				C36.4,276.4,36.9,277.4,36.6,278.5z"/>
		</g>
		<g id="XMLID_9_">
			<path id="XMLID_35_" class="st8" d="M14.3,262.3c0.5-1.2,1.4-2,2.8-1.6c1.4,0.3,2.1,1.2,1.7,2.7c-0.3,1.5-1.3,2.2-2.9,1.8
				C14.6,264.7,14.2,263.7,14.3,262.3z"/>
			<path id="XMLID_31_" class="st8" d="M29.1,266.7c-0.5,1.4-1.5,2-2.8,1.7c-1.5-0.4-2.1-1.6-1.6-3c0.4-1.3,1.5-1.8,2.9-1.4
				C28.9,264.5,29.4,265.4,29.1,266.7z"/>
			<path id="XMLID_30_" class="st8" d="M39.4,270c-0.5,1.6-1.5,2.2-2.9,1.8c-1.5-0.4-2-1.7-1.5-3.1c0.4-1.2,1.6-1.8,2.9-1.3
				C39.2,267.8,39.7,268.8,39.4,270z"/>
		</g>
	</g>
	<g id="XMLID_1_">
		<polygon id="XMLID_12_" class="st1" points="217.9,328.5 237.1,328.5 243.1,281 243.1,247 212.5,247 213.6,280.6 		"/>
		<path id="XMLID_14_" class="st1" d="M214.8,334c0-0.2,0-0.4,0-0.6c0,0,0,0,0,0c0.2-7.6,5.1-11.3,12.2-11.5
			c7.5-0.1,12.8,3.4,13.1,11.4c0,0,0,0,0,0c0,0.2,0,0.4,0,0.6c0,0.2,0,0.4,0,0.6c0,0,0,0,0,0c-0.3,8.1-5.6,11.6-13.1,11.4
			c-7.1-0.1-11.9-3.9-12.2-11.5c0,0,0,0,0,0C214.8,334.4,214.8,334.2,214.8,334z"/>
	</g>
	<path id="XMLID_25_" class="st1" d="M83,291.8c0-0.2,0-0.4,0-0.6c0,0,0,0,0,0c-0.2-7.6-5.1-11.3-12.2-11.5
		c-7.5-0.1-12.8,3.4-13.1,11.4c0,0,0,0,0,0c0,0.2,0,0.4,0,0.6c0,0.2,0,0.4,0,0.6c0,0,0,0,0,0c0.3,8.1,5.6,11.6,13.1,11.4
		c7.1-0.1,11.9-3.9,12.2-11.5c0,0,0,0,0,0C83,292.2,83,292,83,291.8z"/>
</g>
</svg>
