<?xml version="1.0" encoding="utf-8"?>
<!-- Generator: Adobe Illustrator 19.0.0, SVG Export Plug-In . SVG Version: 6.00 Build 0)  -->
<svg version="1.1" id="Layer_1" xmlns="http://www.w3.org/2000/svg" xmlns:xlink="http://www.w3.org/1999/xlink" x="0px" y="0px"
	 viewBox="-151 161.5 308.8 470.5" style="enable-background:new -151 161.5 308.8 470.5;" xml:space="preserve">
<style type="text/css">
	.st0{opacity:0.5;fill:#1C1C1C;}
	.st1{fill:#ECD2AA;}
	.st2{fill:#5E5F61;}
	.st3{fill:#FFFFFF;}
	.st4{fill:#090908;}
	.st5{fill:#31567A;}
	.st6{fill:#877154;}
	.st7{fill:#5A4732;}
	.st8{fill:#D8BC47;}
	.st9{fill:none;}
	.st10{fill:none;stroke:#BC9161;stroke-miterlimit:10;}
	.st11{fill:#E2E2E2;}
</style>
<g id="Layer_2">
</g>
<ellipse id="XMLID_127_" class="st0" cx="-1.7" cy="597.6" rx="114.8" ry="34.4"/>
<path id="XMLID_26_" class="st1" d="M-78.7,464c-8.8,9.4-29.5,10.1-29-1.4c0.3-8,8.1-29.3,8.1-29.3l4.7-24.8h30.6l-6.4,40.2
	c0,0,1.3,1.2-5.5,11.3C-77.9,462.6-77.4,462.6-78.7,464z"/>
<path id="XMLID_125_" class="st2" d="M97.5,446.7"/>
<path id="XMLID_123_" class="st3" d="M-4.6,603.3h-61.7c-1.6,0-2.9-1.3-2.9-2.9v-5.9c0-1.6,1.3-2.9,2.9-2.9h61.7
	c1.6,0,2.9,1.3,2.9,2.9v5.9C-1.7,602-3,603.3-4.6,603.3z"/>
<path id="XMLID_122_" class="st3" d="M63.9,603.3H2.2c-1.6,0-2.9-1.3-2.9-2.9v-5.9c0-1.6,1.3-2.9,2.9-2.9h61.7
	c1.6,0,2.9,1.3,2.9,2.9v5.9C66.8,602,65.5,603.3,63.9,603.3z"/>
<rect id="XMLID_121_" x="-69.1" y="597.1" class="st3" width="67.4" height="6.2"/>
<rect id="XMLID_120_" x="-0.6" y="597.1" class="st3" width="67.4" height="6.2"/>
<circle id="XMLID_11_" class="st1" cx="-1.7" cy="267" r="105.5"/>
<path id="XMLID_115_" class="st4" d="M43.8,302c-7.1-4.8-14.1-9.9-21.6-13.9c-9.8-5.2-17.1-3-24,6.7c-6.9-9.6-14.2-11.9-24-6.7
	c-7.5,4-14.5,9.1-21.6,13.9c-8.2,5.5-16.5,8.5-26.6,1.1c15.4,28.9,52.1,30.3,72.2,4.3c20.1,26,56.8,24.6,72.2-4.3
	C60.4,310.5,52,307.5,43.8,302z"/>
<g id="XMLID_112_">
	<ellipse id="XMLID_114_" class="st4" cx="-25" cy="273.1" rx="3.9" ry="4.8"/>
	<ellipse id="XMLID_113_" class="st4" cx="21.5" cy="273.1" rx="3.9" ry="4.8"/>
</g>
<path id="XMLID_5_" class="st4" d="M78.4,190.5c-5-9.9-14.9-18.8-24.3-16.7c-6.9-9.6-67.9-20.8-102.6-1.4
	c-8.6,4.8-38.3,25.8-57.3,11.3c0,52,112.3,59.5,159.9,2.6c20.1,26,25.5,37.1,40.2,36.8C91.1,216.6,83.6,200.7,78.4,190.5z"/>
<path id="XMLID_8_" class="st4" d="M-29.2,170.3c-9.4,3.1-43.2,22.1-59.2,4.3C-98.1,225.7,8.6,157.7-29.2,170.3z"/>
<path id="XMLID_111_" class="st4" d="M-19.3,176.2c-6.9,1.3-32.7,11.6-42.3-2.6C-73.4,209,8.6,170.9-19.3,176.2z"/>
<path id="XMLID_7_" class="st4" d="M64.3,161.5c0,0-8.4,13.9-32.3,15.8C54.3,200,64.3,161.5,64.3,161.5z"/>
<path id="XMLID_20_" class="st5" d="M63.2,494.8"/>
<path id="XMLID_10_" class="st5" d="M-64.4,500.4c-0.1,23.6-0.2,47.1-0.3,70.7c0.6,7,0.9,14-0.2,21c19.9-0.1,39.8-0.2,59.7-0.3
	c0-9.8,0-19.6-0.1-29.5c0-3.4,0.1-6.3,4.8-6.3c5.1,0,4.5,3.3,4.4,6.4c-0.1,9.8-0.2,19.6-0.2,29.5c19.2,0.1,38.5,0.1,57.7,0.2
	c-1.4-7.6-0.8-15.2-0.3-22.8c-0.1-23.3-0.3-46.7-0.4-70c0-1.8,0.1-4.3,0.1-4.3H-64.3C-64.3,494.8-64.4,498.1-64.4,500.4z"/>
<g id="XMLID_13_">
	<path id="XMLID_16_" d="M-64.3,498.1L-64.3,498.1L-64.3,498.1z"/>
	<path id="XMLID_17_" d="M-64.3,498.6L-64.3,498.6L-64.3,498.6z"/>
	<path id="XMLID_18_" d="M-64.3,499.8L-64.3,499.8L-64.3,499.8z"/>
	<path id="XMLID_19_" d="M-64.7,496.1L-64.7,496.1L-64.7,496.1z"/>
	<path id="XMLID_21_" d="M-64.9,495.8L-64.9,495.8L-64.9,495.8z"/>
</g>
<path id="XMLID_15_" d="M-1.7,372.6c-16.5,0-32.1-3.8-46-10.5c-2.4,1-5.2,0.1-7.8,0.5l0,0c-12.4,0-24.8,0-37.2-0.2
	c-4.5-0.1-6.9,0.5-6.9,6c0.1,17.6,0.1,19.6,0.2,19.8c0,0.3-0.1,2.8-0.2,19.8c0,4.7,1.7,6.3,5.9,6.2c8.4,0,20.4,0,28.8,0
	c0.7-0.1,0.1,80.6,0.5,80.6h62.6V372.6H-1.7z"/>
<path id="XMLID_23_" d="M-1.7,372.6c16.5,0,32.1-3.8,46-10.5c2.4,1,5.2,0.1,7.8,0.5l0,0c12.4,0,24.8,0,37.2-0.2
	c4.5-0.1,6.9,0.5,6.9,6C96.1,386,96.1,388,96,388.2c0,0.3,0.1,2.8,0.2,19.8c0,4.7-1.7,6.3-5.9,6.2c-8.4,0-20.4,0-28.8,0
	c-0.7-0.1-0.1,80.6-0.5,80.6H-1.6L-1.7,372.6L-1.7,372.6z"/>
<g id="XMLID_109_">
	<path id="XMLID_731_" class="st6" d="M0.4,459.9c2.6-5.5,5.5-10.8,9.4-15.5c7.4-9,16.7-11.7,27.8-8.6c7.1,2,13.7,5.1,19.6,9.4
		c8.4,6.1,16.8,6.9,26.4,3.2c11.6-4.4,23.8-5.9,36.2-3.2c12.3,2.6,23.4,7.5,30.7,18.4c5.6,8.5,7.6,18,7.1,28
		c-1.2,21.8-7.6,42-20.9,59.5c-10.7,14-24.8,20.5-42.6,16.5c-14.1-3.1-25.8-10.4-35-21.6c-3-3.7-6-7.5-8.9-11.3
		c-3.3-4.4-7.5-6.9-13.1-7.3c-6.2-0.5-12.3-0.9-18.4-2c-5.2-1-10.2-2.6-14.9-5.2c-7.7-4.4-11.1-11.4-11.9-19.9c-0.5-6,0-12,1.3-17.8
		L0.4,459.9z"/>
	<circle id="XMLID_104_" class="st7" cx="44.6" cy="487" r="25.1"/>
	<circle id="XMLID_84_" cx="44.6" cy="487" r="22.3"/>
	<g id="XMLID_70_">
		<path id="XMLID_80_" class="st8" d="M-111.5,423.6c1.6,0.5,3.3-0.4,3.8-1.9s-0.6-2.6-2.2-3.1s-3.1-0.3-3.6,1.3
			C-114,421.4-113.1,423.1-111.5,423.6z"/>
		<path id="XMLID_71_" class="st8" d="M-113.6,425.3c0.8-0.6,1.4-2.1,1.8-4l0.9,0.3l0.9,0.3c-0.7,1.7-1.2,3.3-0.8,4.3l-1.4-0.5
			L-113.6,425.3z"/>
	</g>
	<g id="XMLID_67_">
		<path id="XMLID_69_" class="st8" d="M-121.7,420c1.6,0.5,3.3-0.4,3.8-1.9c0.5-1.6-0.6-2.6-2.2-3.1c-1.6-0.5-3.1-0.3-3.6,1.3
			C-124.1,417.8-123.2,419.5-121.7,420z"/>
		<path id="XMLID_68_" class="st8" d="M-123.7,421.7c0.8-0.6,1.4-2.1,1.8-4l0.9,0.3l0.9,0.3c-0.7,1.7-1.2,3.3-0.8,4.3l-1.4-0.5
			L-123.7,421.7z"/>
	</g>
	<g id="XMLID_64_">
		<path id="XMLID_66_" class="st8" d="M-131.9,416.7c1.6,0.5,3.3-0.4,3.8-1.9c0.5-1.6-0.6-2.6-2.2-3.1c-1.6-0.5-3.1-0.3-3.6,1.3
			C-134.4,414.5-133.5,416.2-131.9,416.7z"/>
		<path id="XMLID_65_" class="st8" d="M-134,418.4c0.8-0.6,1.4-2.1,1.8-4l0.9,0.3l0.9,0.3c-0.7,1.7-1.2,3.3-0.8,4.3l-1.4-0.5
			L-134,418.4z"/>
	</g>
	<g id="XMLID_39_">
		<path id="XMLID_49_" class="st8" d="M-119,446.7c1.6,0.5,2.5,2.2,1.9,3.8s-2,1.8-3.6,1.3c-1.6-0.5-2.7-1.5-2.2-3.1
			C-122.3,447.1-120.6,446.2-119,446.7z"/>
		<path id="XMLID_43_" class="st8" d="M-119.7,444.2c0.4,0.9-0.1,2.5-0.8,4.3l0.9,0.3l0.9,0.3c0.5-1.8,1-3.4,1.8-4l-1.4-0.5
			L-119.7,444.2z"/>
	</g>
	<g id="XMLID_4_">
		<path id="XMLID_29_" class="st8" d="M-129.3,443.8c1.6,0.5,2.5,2.2,1.9,3.8c-0.5,1.6-2,1.8-3.6,1.3s-2.7-1.5-2.2-3.1
			C-132.6,444.1-130.9,443.2-129.3,443.8z"/>
		<path id="XMLID_24_" class="st8" d="M-130.1,441.2c0.4,0.9-0.1,2.5-0.8,4.3l0.9,0.3l0.9,0.3c0.5-1.8,1-3.4,1.8-4l-1.4-0.5
			L-130.1,441.2z"/>
	</g>
	<g id="XMLID_3_">
		<path id="XMLID_36_" class="st8" d="M-139.6,440.4c1.6,0.5,2.5,2.2,1.9,3.8c-0.5,1.6-2,1.8-3.6,1.3c-1.6-0.5-2.7-1.5-2.2-3.1
			S-141.2,439.9-139.6,440.4z"/>
		<path id="XMLID_6_" class="st8" d="M-140.3,437.8c0.4,0.9-0.1,2.5-0.8,4.3l0.9,0.3l0.9,0.3c0.5-1.8,1-3.4,1.8-4l-1.4-0.5
			L-140.3,437.8z"/>
	</g>
	<path id="XMLID_74_" class="st6" d="M-143.5,414.1c-0.2,1.9-1.2,3.7-2.4,5.1c-1.4,1.6-2.4,3.3-3.1,5.1l0,0v0.1v0.1l0,0
		c-0.5,1.9-0.6,3.9-0.5,6c0.2,1.9,0,3.9-1,5.5c-0.9,1.5-0.4,1.8,0.6,2.1c5.1-0.1,14.1,1.7,24,4.9c3.4,1.1,6.7,2.3,9.6,3.5
		c0.2,0.1,0.4,0.2,0.6,0.3c1.5,0.6,3,1.3,4.4,1.9c0.7,0.2,1.4,0.1,2.2-0.3c3.1-1.5,6.4-1.4,9.7-0.7c0.7-2.2,1.4-4.3,2.1-6.5
		c0.7-2.2,1.4-4.3,2.1-6.5c-3-1.4-5.7-3.2-7.4-6.2c-0.4-0.8-1-1.3-1.6-1.5c-1.5-0.3-3-0.6-4.7-1c-0.2,0-0.5-0.1-0.7-0.2
		c-3.1-0.7-6.4-1.7-9.9-2.8c-10-3.2-18.3-7.1-22.4-10.1C-142.7,412.4-143.3,412.4-143.5,414.1z M-135.3,426.5
		c-1.3-0.6-1.6-1.7-1.3-3c0.7-1.2,1.7-1.8,3-1.3c1.5,0.6,1.9,1.7,1.3,3.1C-132.9,426.7-134,427-135.3,426.5z M-123.3,425.5
		c1.3,0.5,1.7,1.6,1.3,3c-0.5,1.2-1.5,1.7-2.8,1.3c-1.4-0.4-1.9-1.5-1.5-2.8C-125.9,425.6-124.8,425-123.3,425.5z M-139.4,432.4
		c0.5-1.2,1.4-2,2.8-1.6c1.4,0.3,2.1,1.2,1.7,2.7c-0.3,1.5-1.3,2.2-2.9,1.8C-139.2,434.8-139.6,433.7-139.4,432.4z M-126.2,434.1
		c1.3,0.4,1.8,1.4,1.5,2.7c-0.5,1.4-1.5,2-2.8,1.7c-1.5-0.4-2.1-1.6-1.6-3C-128.7,434.2-127.6,433.7-126.2,434.1z M-114.4,440
		c-0.5,1.6-1.5,2.2-2.9,1.8c-1.5-0.4-2-1.7-1.5-3.1c0.4-1.2,1.6-1.8,2.9-1.3S-114.1,438.9-114.4,440z M-111.8,432
		c-0.4,1.1-1.4,1.6-2.8,1.2s-2-1.5-1.6-2.8c0.4-1.4,1.6-2.1,3-1.6C-111.8,429.3-111.3,430.4-111.8,432z"/>
	<line id="XMLID_81_" class="st9" x1="-98" y1="440.9" x2="-1.5" y2="472.1"/>
	<path id="XMLID_82_" class="st6" d="M-1.5,472.1l-5,11.6c0.2-0.6,0.1-3.5-1-4.1c-7.1-4.5-84.4-30-92.7-32.2l2.1-6.5L-1.5,472.1z"/>
	<path id="XMLID_83_" class="st6" d="M-1.5,472.1l2.7-12.4c-0.2,0.6-2,2.8-3.2,2.8c-8.4-0.5-86-25-94-28.1l-2.1,6.5L-1.5,472.1z"/>
	<path id="XMLID_86_" class="st7" d="M108.6,483.7l-13.5,41.8c-0.8,2.4-3.3,3.7-5.7,2.9l0,0c-2.4-0.8-3.7-3.3-2.9-5.7l13.5-41.8
		c0.8-2.4,3.3-3.7,5.7-2.9l0,0C108.1,478.8,109.4,481.3,108.6,483.7z"/>
	<path id="XMLID_87_" class="st7" d="M-96.7,435.5l-3.3,10.4c-0.3,0.8-1.1,1.2-1.9,1l0,0c-0.8-0.3-1.2-1.1-1-1.9l3.4-10.4
		c0.3-0.8,1.1-1.2,1.9-1l0,0C-96.9,433.8-96.4,434.7-96.7,435.5z"/>
	<g id="XMLID_89_">
		<g id="XMLID_106_">
			<polyline id="XMLID_108_" class="st10" points="-116.6,439.6 -101.3,444.7 95.4,509.9 			"/>
			<circle id="XMLID_107_" class="st11" cx="95.4" cy="509.9" r="1.2"/>
		</g>
		<g id="XMLID_102_">
			<polyline id="XMLID_105_" class="st10" points="-126.9,436.3 -100.7,442.9 96.2,507.5 			"/>
			<circle id="XMLID_103_" class="st11" cx="96.2" cy="507.5" r="1.2"/>
		</g>
		<g id="XMLID_90_">
			<polyline id="XMLID_101_" class="st10" points="-137.2,433 -100.1,441.1 97,505.2 			"/>
			<circle id="XMLID_100_" class="st11" cx="97" cy="505.2" r="1.2"/>
		</g>
	</g>
	<g id="XMLID_88_">
		<g id="XMLID_91_">
			<polyline id="XMLID_93_" class="st10" points="-113.8,431 -98.4,435.8 99.3,498 			"/>
			<circle id="XMLID_92_" class="st11" cx="99.3" cy="498" r="1.2"/>
		</g>
		<g id="XMLID_94_">
			<polyline id="XMLID_96_" class="st10" points="-124.1,427.6 -99,437.6 98.5,500.4 			"/>
			<circle id="XMLID_95_" class="st11" cx="98.5" cy="500.4" r="1.2"/>
		</g>
		<g id="XMLID_97_">
			<polyline id="XMLID_99_" class="st10" points="-134.4,424.3 -99.6,439.5 97.7,502.7 			"/>
			<circle id="XMLID_98_" class="st11" cx="97.7" cy="502.7" r="1.2"/>
		</g>
	</g>
	<g id="XMLID_2_">
		<path id="XMLID_63_" class="st8" d="M-139.4,432.4c0.5-1.2,1.4-2,2.8-1.6c1.4,0.3,2.1,1.2,1.7,2.7c-0.3,1.5-1.3,2.2-2.9,1.8
			C-139.2,434.8-139.6,433.7-139.4,432.4z"/>
		<path id="XMLID_61_" class="st8" d="M-124.7,436.8c-0.5,1.4-1.5,2-2.8,1.7c-1.5-0.4-2.1-1.6-1.6-3c0.4-1.3,1.5-1.8,2.9-1.4
			C-124.9,434.5-124.4,435.5-124.7,436.8z"/>
		<path id="XMLID_55_" class="st8" d="M-114.4,440c-0.5,1.6-1.5,2.2-2.9,1.8c-1.5-0.4-2-1.7-1.5-3.1c0.4-1.2,1.6-1.8,2.9-1.3
			S-114.1,438.9-114.4,440z"/>
	</g>
	<g id="XMLID_9_">
		<path id="XMLID_35_" class="st8" d="M-136.7,423.8c0.5-1.2,1.4-2,2.8-1.6c1.4,0.3,2.1,1.2,1.7,2.7c-0.3,1.5-1.3,2.2-2.9,1.8
			C-136.4,426.2-136.8,425.2-136.7,423.8z"/>
		<path id="XMLID_31_" class="st8" d="M-121.9,428.2c-0.5,1.4-1.5,2-2.8,1.7c-1.5-0.4-2.1-1.6-1.6-3c0.4-1.3,1.5-1.8,2.9-1.4
			C-122.1,426-121.6,426.9-121.9,428.2z"/>
		<path id="XMLID_30_" class="st8" d="M-111.6,431.5c-0.5,1.6-1.5,2.2-2.9,1.8c-1.5-0.4-2-1.7-1.5-3.1c0.4-1.2,1.6-1.8,2.9-1.3
			C-111.8,429.3-111.3,430.3-111.6,431.5z"/>
	</g>
</g>
<g id="XMLID_1_">
	<polygon id="XMLID_12_" class="st1" points="66.9,490 86.1,490 92.1,442.5 92.1,408.5 61.5,408.5 62.6,442.1 	"/>
	<path id="XMLID_14_" class="st1" d="M63.8,495.5c0-0.2,0-0.4,0-0.6l0,0c0.2-7.6,5.1-11.3,12.2-11.5c7.5-0.1,12.8,3.4,13.1,11.4l0,0
		c0,0.2,0,0.4,0,0.6s0,0.4,0,0.6l0,0c-0.3,8.1-5.6,11.6-13.1,11.4c-7.1-0.1-11.9-3.9-12.2-11.5l0,0
		C63.8,495.9,63.8,495.7,63.8,495.5z"/>
</g>
<path id="XMLID_25_" class="st1" d="M-68,453.3c0-0.2,0-0.4,0-0.6l0,0c-0.2-7.6-5.1-11.3-12.2-11.5c-7.5-0.1-12.8,3.4-13.1,11.4l0,0
	c0,0.2,0,0.4,0,0.6s0,0.4,0,0.6l0,0c0.3,8.1,5.6,11.6,13.1,11.4c7.1-0.1,11.9-3.9,12.2-11.5l0,0C-68,453.7-68,453.5-68,453.3z"/>
</svg>
