<?xml version="1.0" encoding="utf-8"?>
<!-- Generator: Adobe Illustrator 19.0.0, SVG Export Plug-In . SVG Version: 6.00 Build 0)  -->
<svg version="1.1" id="Lager_1" xmlns="http://www.w3.org/2000/svg" xmlns:xlink="http://www.w3.org/1999/xlink" x="0px" y="0px"
	 viewBox="0 0 199.1 62.3" style="enable-background:new 0 0 199.1 62.3;" xml:space="preserve">
<style type="text/css">
	.B√_x00B6_jd_x0020_gr√_x00B6_n{fill:url(#SVGID_1_);stroke:#FFFFFF;stroke-width:0.25;stroke-miterlimit:1;}
	.st0{fill:#FFFFFF;stroke:#FFFFFF;stroke-width:0.3;}
	.st1{fill:none;stroke:#FFFFFF;stroke-width:0.3;}
	.st2{fill:none;stroke:#FFFFFF;stroke-width:0.6589;stroke-miterlimit:3.8637;}
	.st3{fill:none;stroke:#FFFFFF;stroke-width:0.5125;stroke-miterlimit:3.8637;}
	.st4{fill-rule:evenodd;clip-rule:evenodd;}
	.st5{fill-rule:evenodd;clip-rule:evenodd;fill:#FFFFFF;stroke:#FFFFFF;stroke-width:0.3;}
	.st6{fill-rule:evenodd;clip-rule:evenodd;fill:#FFFFFF;}
	.st7{fill:#FFFFFF;}
</style>
<linearGradient id="SVGID_1_" gradientUnits="userSpaceOnUse" x1="-42.5073" y1="228.6235" x2="-41.8002" y2="227.9164">
	<stop  offset="0" style="stop-color:#22AB4B"/>
	<stop  offset="0.9831" style="stop-color:#19361C"/>
</linearGradient>
<g>
	<polygon class="st0" points="11.6,62.3 12.2,59.8 11.7,59.3 12.3,47 12.2,2.8 10.1,0 8.1,2.8 7.9,47 8.6,59.3 8.1,59.8 8.6,62.3 	
		"/>
	<polygon class="st0" points="12.3,47 19.1,46.1 19.1,48.8 12.3,50.1 8,50.1 1.1,48.8 1.1,46.1 8,47 	"/>
	<line class="st0" x1="8.6" y1="59.3" x2="11.7" y2="59.3"/>
	<g>
		<line class="st1" x1="8.1" y1="51" x2="9.7" y2="50.1"/>
		<line class="st1" x1="9.8" y1="59.3" x2="11.7" y2="58.1"/>
		<line class="st1" x1="8.5" y1="58.2" x2="11.8" y2="56.2"/>
		<line class="st1" x1="8.4" y1="56.4" x2="11.9" y2="54.3"/>
		<line class="st1" x1="8.3" y1="54.6" x2="12" y2="52.2"/>
		<line class="st1" x1="8.2" y1="52.8" x2="12.3" y2="50.1"/>
	</g>
	<polyline class="st1" points="8.1,50.1 7.9,47 10.1,44.8 12.3,47 12.2,50.1 	"/>
	<line class="st1" x1="10.1" y1="0" x2="10.1" y2="44.8"/>
</g>
<g>
	<g>
		<line class="st2" x1="10.1" y1="6.8" x2="10.1" y2="5.2"/>
		<line class="st3" x1="9.4" y1="5.9" x2="10.9" y2="5.9"/>
	</g>
	<path class="st0" d="M8.8,7.9c0-0.7,0.6-1.3,1.3-1.3c0.7,0,1.3,0.6,1.3,1.3c0,0.7-0.6,1.3-1.3,1.3C9.4,9.2,8.8,8.6,8.8,7.9L8.8,7.9
		z"/>
</g>
<path class="st4" d="M1.4,18C1.4,18,1.4,18,1.4,18C1.4,18,1.4,17.9,1.4,18L1.4,18z"/>
<path class="st5" d="M20.4,14.5l-1.6,7H1.3l-1.3-7c0,0,0.4-0.6,0.8-0.7l-0.3-0.6c1.5-2.4,5.5-4,9.6-4c0,0-0.1,0-0.1,0h0.2
	c0,0-0.1,0-0.1,0c4.1,0,8.1,1.7,9.6,4l-0.3,0.6C20,13.9,20.4,14.5,20.4,14.5z"/>
<path class="st6" d="M17.4,16.9c0-0.6,0.5-1.1,1.1-1.1c0,0,0.1,0,0.1,0l0.1,0c-0.2-0.2-0.4-0.5-0.4-0.9c0-0.4,0.2-0.8,0.5-1l0,0
	l-1.3-0.7c-0.8-1.2-2-2.4-4.5-3.1c1.8,1.2,2.7,3.1,2.7,3.1l-0.5,0.7c0.4,0.2,0.8,0.6,0.8,1.1c0,0.3-0.1,0.6-0.3,0.8l-0.1,0
	c0.1,0,0.2,0,0.2,0c0.6,0,1.1,0.5,1.1,1.1c0,0.6-0.5,1.1-1.1,1.1c-0.2,0-0.3,0-0.5-0.1l-0.1,0c0,0.5,0.4,1,1,1c0.5,0,0.9-0.4,1-0.8
	c0,0.5,0.4,0.8,0.9,0.8c0.5,0,0.9-0.4,1-0.9c-0.1,0.1-0.3,0.1-0.4,0.1C17.9,18.1,17.4,17.6,17.4,16.9z"/>
<path class="st4" d="M19,18C19,18,19,18,19,18L19,18C19,17.9,19,18,19,18z"/>
<path class="st6" d="M5.3,13.9l-0.5-0.7c0,0,0.9-1.9,2.7-3.1c-2.5,0.8-3.7,1.9-4.5,3.1L1.6,14l0,0c0.3,0.2,0.5,0.6,0.5,1
	c0,0.3-0.2,0.7-0.4,0.9l0.1,0c0,0,0.1,0,0.1,0c0.6,0,1.1,0.5,1.1,1.1c0,0.6-0.5,1.1-1.1,1.1c-0.2,0-0.3,0-0.4-0.1
	c0,0.5,0.5,0.9,1,0.9c0.5,0,0.9-0.3,0.9-0.8c0.1,0.5,0.5,0.8,1,0.8c0.5,0,1-0.4,1-1l-0.1,0C5,18,4.9,18,4.7,18
	c-0.6,0-1.1-0.5-1.1-1.1c0-0.6,0.5-1.1,1.1-1.1c0.1,0,0.2,0,0.2,0l-0.1,0c-0.2-0.2-0.3-0.5-0.3-0.8C4.5,14.5,4.8,14,5.3,13.9z"/>
<path class="st6" d="M9.8,13.9L9,13.3c0,0-0.1-1.4,0.2-3.3c-1.6,1.2-2.3,3.3-2.3,3.3l-0.8,0.6l-0.1,0c0.4,0.2,0.7,0.6,0.7,1
	c0,0.3-0.1,0.6-0.3,0.8c0,0,0,0,0.1,0c0.6,0,1.1,0.5,1.1,1.1c0,0.6-0.5,1.1-1.1,1.1C6.3,18,6.1,18,6,17.9c0,0.5,0.4,1,1,1
	c0.5,0,0.9-0.3,0.9-0.8l0,0.1c0.1,0.4,0.5,0.7,0.9,0.7c0.5,0,1-0.4,1-1l0,0.1C9.7,18,9.5,18,9.4,18c-0.6,0-1.1-0.5-1.1-1.1
	c0-0.6,0.5-1.1,1.1-1.1l0.1,0c-0.2-0.2-0.3-0.5-0.3-0.8C9.2,14.5,9.4,14.1,9.8,13.9z"/>
<path class="st6" d="M12.8,16.9c0-0.6,0.5-1.1,1.1-1.1c0,0,0,0,0.1,0c-0.2-0.2-0.3-0.5-0.3-0.8c0-0.5,0.3-0.9,0.7-1l-0.1,0l-0.8-0.6
	c0,0-0.8-2.1-2.3-3.3c0.3,1.8,0.2,3.3,0.2,3.3l-0.8,0.7c0.4,0.2,0.7,0.6,0.7,1c0,0.3-0.1,0.6-0.3,0.8l0.1,0c0.6,0,1.1,0.5,1.1,1.1
	c0,0.6-0.5,1.1-1.1,1.1c-0.1,0-0.3,0-0.4-0.1l0-0.1c0,0.5,0.4,1,1,1c0.5,0,0.8-0.3,0.9-0.7l0-0.1c0,0.5,0.4,0.8,0.9,0.8
	c0.5,0,1-0.4,1-1C14.3,18,14.1,18,13.9,18C13.3,18,12.8,17.5,12.8,16.9z"/>
<path class="st7" d="M0.8,21.6L0.8,21.6v14.3c0,2.5,1.7,4.1,4,4.8c5,0.8,5.3,2.6,5.3,2.6s0.4-1.8,5.3-2.6c2.3-0.7,4-2.3,4-4.8V21.6
	H0.8z"/>
<g>
	<path class="st6" d="M10.1,32.7c-0.4,0-0.7,0.3-0.7,0.7c0,0.1,0,0.3,0.1,0.4l0,0C9.2,33.7,9,34,9,34.4c0,0.4,0.2,0.7,0.6,0.7
		c0,0,0,0,0,0l0,0c0,0,0,0.1,0,0.1c0,0.3-0.2,0.5-0.5,0.5c-0.3,0-0.5-0.2-0.5-0.5c0,0.3-0.2,0.5-0.5,0.5c-0.3,0-0.5-0.2-0.5-0.5
		c0.4,0,0.6-0.3,0.6-0.7c0-0.4-0.2-0.7-0.6-0.7c-0.1,0,0.1-0.3,0.1-0.5c0-0.4-0.3-0.7-0.7-0.7c-0.1,0-0.1,0-0.2,0l0,0L7.6,38h2.5
		h2.5l0.7-5.4l0,0c-0.1,0-0.1,0-0.2,0c-0.4,0-0.7,0.3-0.7,0.7c0,0.3,0.2,0.5,0.1,0.5c-0.4,0-0.6,0.3-0.6,0.7c0,0.4,0.2,0.7,0.6,0.7
		c0,0.3-0.2,0.5-0.5,0.5c-0.3,0-0.5-0.2-0.5-0.5c0,0.3-0.2,0.5-0.5,0.5c-0.3,0-0.5-0.2-0.5-0.5c0,0,0-0.1,0-0.1l0,0c0,0,0,0,0.1,0
		c0.4,0,0.6-0.3,0.6-0.7c0-0.4-0.2-0.7-0.6-0.7l0,0c0.1-0.1,0.1-0.2,0.1-0.4C10.8,32.9,10.5,32.7,10.1,32.7L10.1,32.7z"/>
	<path class="st6" d="M14.2,25.1c-0.4,0-0.7,0.3-0.7,0.7c0,0.1,0,0.3,0.1,0.4l0,0c-0.4,0-0.6,0.3-0.6,0.7c0,0.4,0.2,0.7,0.6,0.7
		c0,0,0,0,0.1,0l0,0c0,0,0,0.1,0,0.1c0,0.3-0.2,0.5-0.5,0.5c-0.3,0-0.5-0.2-0.5-0.5c0,0.3-0.2,0.5-0.5,0.5c-0.3,0-0.5-0.3-0.5-0.5
		c0.4,0,0.6-0.3,0.6-0.7c0-0.4-0.2-0.7-0.6-0.7c-0.1,0,0.1-0.3,0.1-0.5c0-0.4-0.3-0.7-0.7-0.7c-0.1,0-0.1,0-0.2,0l0,0l0.7,5.4h2.5
		h2.5l0.7-5.4l0,0c-0.1,0-0.1,0-0.2,0c-0.4,0-0.7,0.3-0.7,0.7c0,0.3,0.2,0.5,0.1,0.5c-0.4,0-0.6,0.3-0.6,0.7c0,0.4,0.2,0.7,0.6,0.7
		c0,0.3-0.2,0.5-0.5,0.5c-0.3,0-0.5-0.3-0.5-0.5c0,0.3-0.2,0.5-0.5,0.5c-0.3,0-0.5-0.2-0.5-0.5c0,0,0-0.1,0-0.1l0,0c0,0,0,0,0.1,0
		c0.4,0,0.6-0.3,0.6-0.7c0-0.4-0.2-0.7-0.6-0.7l0,0c0.1-0.1,0.1-0.2,0.1-0.4C14.9,25.3,14.7,25.1,14.2,25.1L14.2,25.1z"/>
	<path class="st6" d="M6,25.1c-0.4,0-0.7,0.3-0.7,0.7c0,0.1,0,0.3,0.1,0.4l0,0c-0.4,0-0.6,0.3-0.6,0.7c0,0.4,0.2,0.7,0.6,0.7
		c0,0,0,0,0.1,0l0,0c0,0,0,0.1,0,0.1c0,0.3-0.2,0.5-0.5,0.5c-0.3,0-0.5-0.2-0.5-0.5c0,0.3-0.2,0.5-0.5,0.5c-0.3,0-0.5-0.3-0.5-0.5
		c0.4,0,0.6-0.3,0.6-0.7c0-0.4-0.2-0.7-0.6-0.7c-0.1,0,0.1-0.3,0.1-0.5c0-0.4-0.3-0.7-0.7-0.7c-0.1,0-0.1,0-0.2,0l0,0l0.7,5.4H6h2.5
		L9.2,25l0,0c-0.1,0-0.1,0-0.2,0c-0.4,0-0.7,0.3-0.7,0.7c0,0.3,0.2,0.5,0.1,0.5c-0.4,0-0.6,0.3-0.6,0.7c0,0.4,0.2,0.7,0.6,0.7
		c0,0.3-0.2,0.5-0.5,0.5c-0.3,0-0.5-0.3-0.5-0.5c0,0.3-0.2,0.5-0.5,0.5c-0.3,0-0.5-0.2-0.5-0.5c0,0,0-0.1,0-0.1l0,0c0,0,0,0,0,0
		c0.4,0,0.6-0.3,0.6-0.7c0-0.4-0.2-0.7-0.6-0.7l0,0c0.1-0.1,0.1-0.2,0.1-0.4C6.7,25.3,6.4,25.1,6,25.1L6,25.1z"/>
</g>
<path class="st7" d="M187.4,36c0,0.6,0,1.1-0.2,1.3c-0.1,0.2-0.3,0.2-0.7,0.3l-0.7,0V38c0.7,0,1.3-0.1,1.9-0.1c0.7,0,1.3,0,2,0.1
	v-0.5l-0.7,0c-0.4,0-0.6-0.1-0.7-0.3c-0.1-0.2-0.2-0.6-0.2-1.3v-7.7h0l7.9,9.8l1.5,0.3c0-0.2-0.1-0.4-0.1-0.6v-9.2
	c0-0.6,0-1.1,0.2-1.3c0.1-0.2,0.3-0.2,0.7-0.3l0.7,0v-0.5c-0.7,0-1.3,0.1-2,0.1c-0.6,0-1.3,0-1.9-0.1v0.5l0.7,0
	c0.4,0,0.6,0.1,0.7,0.3c0.1,0.2,0.2,0.6,0.2,1.3v7.8h-0.1l-8-9.9c-0.3,0-0.6,0.1-0.9,0.1c-0.6,0-1.3,0-2-0.1v0.5l0.7,0
	c0.4,0,0.6,0.1,0.7,0.3c0.1,0.2,0.2,0.6,0.2,1.3V36z M175.8,36c0,0.6,0,1.1-0.1,1.3c-0.1,0.2-0.3,0.2-0.7,0.3l-0.6,0V38
	c0.6,0,1.2,0,1.8,0c1,0,2.4,0,3.7,0h0.5c1.1,0,2.2,0,2.8-0.1c0-0.9,0.1-1.9,0.3-2.7h-0.6c-0.1,1-0.3,1.7-0.6,1.9
	c-0.3,0.2-2,0.2-3.4,0.2c-0.5,0-0.9,0-1.4-0.1v-4.7c0.5-0.1,1.1-0.1,1.9-0.1c1,0,1.6,0.1,1.8,0.2c0.1,0.1,0.1,0.2,0.1,0.4l0.1,1h0.5
	c0-0.6,0-1.2,0-1.9c0-0.6,0-1.3,0-1.9h-0.5l-0.1,0.9c0,0.2-0.1,0.4-0.1,0.4c-0.2,0.1-0.8,0.2-1.8,0.2c-0.8,0-1.4,0-1.9-0.1v-4.5
	c0.5-0.1,1-0.1,1.4-0.1c1.1,0,2.4,0,3.3,0.4c0.1,0.1,0.2,0.2,0.2,0.5V29h0.6c0-0.9,0.1-1.8,0.3-2.5c-0.7,0-1.4-0.1-2.2-0.1
	c-1,0-2.5,0.1-3.9,0.1c-0.5,0-1,0-1.4,0c-0.5,0-0.9,0-1.4,0v0.5l0.8,0c0.4,0,0.6,0.1,0.7,0.3c0.1,0.2,0.1,0.6,0.1,1.3V36z M166.5,36
	c0,0.6,0,1.1-0.1,1.3c-0.1,0.2-0.3,0.2-0.7,0.3l-0.8,0V38c0.9,0,1.7-0.1,2.5-0.1c0.8,0,1.6,0,2.4,0.1v-0.5l-0.8,0
	c-0.4,0-0.6-0.1-0.7-0.3c-0.1-0.2-0.1-0.6-0.1-1.3v-7.1c0-0.6,0-1.2,0.1-1.7h2.6c0.5,0,0.6,0.2,0.7,0.6l0.1,1.3h0.5
	c0-0.9,0-1.8,0.1-2.7c-0.6,0-1.2,0-1.8,0c-0.6,0-1.2,0-1.8,0h-2.4c-1.2,0-2.4-0.1-3.6-0.1c0.1,0.9,0.1,1.8,0.1,2.7h0.5l0.1-1.3
	c0-0.4,0.2-0.6,0.7-0.6h2.6c0,0.5,0.1,1,0.1,1.7V36z M152.3,32.5l0.2-0.1l5.8,5.6c0.5,0,0.9-0.1,1.3-0.1c0.4,0,0.8,0,1.1,0.1v-0.5
	l-0.3,0c-0.3,0-0.6-0.3-1-0.7l-5.5-5.2l4.5-4c0.4-0.4,0.9-0.6,1.3-0.6l0.7,0v-0.5c-0.4,0-0.9,0.1-1.3,0.1c-0.5,0-1,0-1.5-0.1v0.5
	c0,0.1-0.2,0.4-0.5,0.7l-4.7,4.5v-3.6c0-0.6,0-1.1,0.2-1.3c0.1-0.2,0.3-0.2,0.7-0.3l0.8,0v-0.5c-0.9,0-1.7,0.1-2.4,0.1
	c-0.8,0-1.6,0-2.5-0.1v0.5l0.8,0c0.4,0,0.6,0.1,0.7,0.3c0.1,0.2,0.2,0.6,0.2,1.3V36c0,0.6,0,1.1-0.2,1.3c-0.1,0.2-0.3,0.2-0.7,0.3
	l-0.8,0V38c0.9,0,1.7-0.1,2.5-0.1c0.8,0,1.6,0,2.4,0.1v-0.5l-0.8,0c-0.4,0-0.6-0.1-0.7-0.3c-0.1-0.2-0.2-0.6-0.2-1.3V32.5z
	 M138.5,33.5l2.1-5l2.1,5H138.5z M141.3,26.3h-0.5c-0.5,1.2-1,2.4-1.5,3.6l-3,6.8c-0.2,0.4-0.5,0.8-0.9,0.8l-0.6,0V38
	c0.6,0,1.3-0.1,1.9-0.1c0.5,0,1.1,0,1.9,0.1v-0.5l-0.6,0c-0.5,0-0.8-0.1-0.8-0.5c0-0.3,0.4-1.4,0.6-1.7l0.5-1.1h4.8l0.8,1.9
	c0.2,0.4,0.4,0.8,0.4,1.1c0,0.2-0.3,0.3-0.7,0.3l-0.8,0V38c0.9,0,1.6-0.1,2.2-0.1c0.8,0,1.5,0,2.2,0.1v-0.5l-0.6,0
	c-0.3,0-0.5-0.3-0.7-0.6c-0.2-0.4-0.4-0.8-0.5-1.1L141.3,26.3z M131.8,28.5c0-0.6,0-1.1,0.2-1.3c0.1-0.2,0.3-0.2,0.7-0.3l0.7,0v-0.5
	c-0.5,0-1,0.1-1.6,0.1c-0.5,0-1.1,0-1.6-0.1l-4.4,9.3l-4.4-9.3c-0.5,0-1.1,0.1-1.6,0.1c-0.5,0-1.1,0-1.6-0.1v0.5l0.7,0
	c0.4,0,0.6,0.1,0.7,0.3c0.1,0.2,0.1,0.6,0.1,1.3V36c0,0.6,0,1.1-0.1,1.3c-0.1,0.2-0.3,0.2-0.7,0.3l-0.7,0V38c0.7,0,1.3-0.1,1.9-0.1
	c0.7,0,1.3,0,2,0.1v-0.5l-0.7,0c-0.4,0-0.6-0.1-0.7-0.3c-0.1-0.2-0.1-0.6-0.1-1.3v-7.6h0l4.6,9.8h0.3c0.3-0.7,0.6-1.4,0.9-2.1l3-6.3
	c0.2-0.5,0.5-0.9,0.7-1.4h0V36c0,0.6,0,1.1-0.2,1.3c-0.1,0.2-0.3,0.2-0.7,0.3l-0.6,0V38c0.6,0,1.4-0.1,2.2-0.1c0.8,0,1.6,0,2.4,0.1
	v-0.5l-0.8,0c-0.4,0-0.6-0.1-0.7-0.3c-0.1-0.2-0.2-0.6-0.2-1.3V28.5z M115.3,29.2c0-0.8,0.1-1.5,0.2-2.4c-0.7-0.3-1.7-0.7-3-0.7
	c-2,0-4.3,1.2-4.3,3.8c0,1.7,1,2.6,3.7,2.9c1.7,0.2,3,0.7,3,2.2c0,1.7-1.5,2.6-3,2.6c-1.3,0-2.6-0.6-2.7-1.3l-0.1-1.1h-0.5v0.6
	c0,0.6,0,1.3-0.1,1.9c0.6,0.3,1.7,0.6,2.9,0.6c2.5,0,5.1-1.4,5.1-4.2c0-1.9-1.5-2.5-3.9-2.7c-2.1-0.2-2.8-0.9-2.8-2.1
	c0-1.7,1.3-2.4,2.5-2.4c0.7,0,1.4,0.1,1.8,0.4c0.6,0.4,0.7,0.6,0.7,1l0.1,1H115.3z M98.4,27.2c0.5-0.1,1-0.2,1.7-0.2
	c1.3,0,2.6,0.5,2.6,2.3c0,1.2-1,2.1-2.2,2.3c-0.4,0.1-0.7,0.1-1,0.1c-0.2,0-0.3,0-0.5,0L99,32c0.3,0.4,0.6,0.7,0.9,1l3.1,4.1
	c0.2,0.3,0.5,0.6,0.7,0.9c0.4,0,0.8-0.1,1.1-0.1c0.4,0,0.8,0,1.2,0.1v-0.5c-0.4,0-0.8-0.1-1-0.4l-3.8-5c1.6-0.3,3.3-1.4,3.3-3.2
	c0-1.2-0.7-2.5-3.2-2.5h-0.2c-1,0-1.9,0-2.9,0c-1,0-2,0-2.8,0v0.5l0.7,0c0.4,0,0.6,0.1,0.7,0.3c0.1,0.2,0.2,0.6,0.2,1.3V36
	c0,0.6,0,1.1-0.2,1.3c-0.1,0.2-0.3,0.2-0.7,0.3l-0.8,0V38c0.9,0,1.7-0.1,2.5-0.1c0.8,0,1.6,0,2.4,0.1v-0.5l-0.8,0
	c-0.4,0-0.6-0.1-0.7-0.3c-0.1-0.2-0.2-0.6-0.2-1.3V27.2z M85.1,33.5l2.1-5l2.1,5H85.1z M87.9,26.3h-0.5c-0.5,1.2-1,2.4-1.5,3.6
	l-3,6.8c-0.2,0.4-0.5,0.8-0.9,0.8l-0.6,0V38c0.6,0,1.3-0.1,1.9-0.1c0.5,0,1.1,0,1.9,0.1v-0.5l-0.6,0c-0.5,0-0.8-0.1-0.8-0.5
	c0-0.3,0.4-1.4,0.6-1.7l0.5-1.1h4.8l0.8,1.9c0.2,0.4,0.3,0.8,0.3,1.1c0,0.2-0.3,0.3-0.7,0.3l-0.8,0V38c0.9,0,1.6-0.1,2.2-0.1
	c0.8,0,1.5,0,2.2,0.1v-0.5l-0.6,0c-0.3,0-0.5-0.3-0.7-0.6c-0.2-0.4-0.4-0.8-0.5-1.1L87.9,26.3z M73.8,27.5c0-0.1,0-0.1,0-0.2
	c0-0.3,0.3-0.3,0.5-0.3l0.9,0v-0.5c-0.7,0-1.5,0.1-2.2,0.1s-1.5,0-2.2-0.1v0.5l0.6,0c0.3,0,0.5,0.2,0.7,0.7l3.2,7.7
	c0.3,0.8,0.7,1.8,1,2.8h0.8c0.3-1,0.7-2,1.1-2.9l2.9-7.1c0.3-0.8,0.6-1.2,0.9-1.2l0.5,0v-0.5c-0.6,0-1.2,0.1-1.8,0.1
	c-0.6,0-1.2,0-1.8-0.1v0.5l0.9,0c0.3,0,0.6,0.1,0.6,0.5c0,0.1-0.1,0.4-0.2,0.6L77.1,36L73.8,27.5z M69,29.2c0-0.8,0.1-1.5,0.2-2.4
	c-0.7-0.3-1.7-0.7-3-0.7c-2,0-4.3,1.2-4.3,3.8c0,1.7,1,2.6,3.7,2.9c1.7,0.2,2.9,0.7,2.9,2.2c0,1.7-1.5,2.6-3,2.6
	c-1.3,0-2.6-0.6-2.7-1.3l-0.1-1.1h-0.5v0.6c0,0.6,0,1.3-0.1,1.9c0.6,0.3,1.7,0.6,2.9,0.6c2.5,0,5.1-1.4,5.1-4.2
	c0-1.9-1.5-2.5-3.9-2.7c-2.1-0.2-2.8-0.9-2.8-2.1c0-1.7,1.3-2.4,2.5-2.4c0.7,0,1.4,0.1,1.8,0.4c0.6,0.4,0.7,0.6,0.7,1l0.1,1H69z
	 M52.2,27.2c0.5-0.1,1-0.2,1.7-0.2c1.3,0,2.6,0.5,2.6,2.3c0,1.2-1,2.1-2.2,2.3c-0.4,0.1-0.7,0.1-1,0.1c-0.2,0-0.3,0-0.5,0L52.8,32
	c0.3,0.4,0.6,0.7,0.9,1l3.1,4.1c0.2,0.3,0.5,0.6,0.7,0.9c0.4,0,0.8-0.1,1.1-0.1c0.4,0,0.8,0,1.2,0.1v-0.5c-0.4,0-0.8-0.1-1-0.4
	l-3.8-5c1.6-0.3,3.3-1.4,3.3-3.2c0-1.2-0.7-2.5-3.2-2.5h-0.2c-1,0-1.9,0-2.9,0c-1,0-2,0-2.8,0v0.5l0.7,0c0.4,0,0.6,0.1,0.7,0.3
	c0.1,0.2,0.2,0.6,0.2,1.3V36c0,0.6,0,1.1-0.2,1.3c-0.1,0.2-0.3,0.2-0.7,0.3l-0.8,0V38c0.9,0,1.7-0.1,2.5-0.1c0.8,0,1.6,0,2.4,0.1
	v-0.5l-0.8,0c-0.4,0-0.6-0.1-0.7-0.3c-0.1-0.2-0.2-0.6-0.2-1.3V27.2z M42.5,23.4c-0.5,0-0.9,0.5-0.9,0.9c0,0.5,0.4,0.9,0.9,0.9
	c0.5,0,0.9-0.4,0.9-0.9C43.4,23.9,43,23.4,42.5,23.4 M39.1,23.4c-0.5,0-0.9,0.5-0.9,0.9c0,0.5,0.4,0.9,0.9,0.9
	c0.5,0,0.9-0.4,0.9-0.9C40.1,23.9,39.6,23.4,39.1,23.4 M40.6,26.8c3.1,0,4.6,2.2,4.6,5.5c0,3.1-1.4,5.3-4.2,5.3
	c-3.3,0-4.7-3.1-4.7-6C36.4,28.9,37.7,26.8,40.6,26.8 M40.5,38.3c3.7,0,6.5-2.9,6.5-6.5c0-3.7-2.5-5.7-6.1-5.7
	c-3.9,0-6.3,2.7-6.3,6.1C34.6,36,37.1,38.3,40.5,38.3 M27.2,32.5c0.5-0.1,1.1-0.1,1.9-0.1c1,0,1.6,0.1,1.8,0.2
	c0.1,0.1,0.1,0.2,0.1,0.4l0.1,1h0.5c0-0.6,0-1.2,0-1.9c0-0.6,0-1.3,0-1.9h-0.5l-0.1,0.9c0,0.2-0.1,0.4-0.1,0.4
	c-0.2,0.1-0.8,0.2-1.8,0.2c-0.8,0-1.4,0-1.9-0.1v-4.5c0.5-0.1,1-0.1,1.4-0.1c0.7,0,2.1,0,3,0.4c0.1,0.1,0.2,0.2,0.2,0.5V29h0.6
	c0-0.9,0.1-1.8,0.3-2.5c-0.7,0-1.4-0.1-2.2-0.1c-1,0-2.5,0.1-3.6,0.1c-0.5,0-1,0-1.4,0c-0.5,0-0.9,0-1.4,0v0.5l0.8,0
	c0.4,0,0.6,0.1,0.7,0.3c0.1,0.2,0.2,0.6,0.2,1.3V36c0,0.6,0,1.1-0.2,1.3c-0.1,0.2-0.3,0.2-0.7,0.3l-0.8,0V38c0.9,0,1.7-0.1,2.5-0.1
	c0.8,0,1.6,0,2.4,0.1v-0.5l-0.8,0c-0.4,0-0.6-0.1-0.7-0.3c-0.1-0.2-0.2-0.6-0.2-1.3V32.5z"/>
</svg>
