<?xml version="1.0" encoding="utf-8"?>
<!-- Generator: Adobe Illustrator 19.0.0, SVG Export Plug-In . SVG Version: 6.00 Build 0)  -->
<svg version="1.1" id="Layer_1" xmlns="http://www.w3.org/2000/svg" xmlns:xlink="http://www.w3.org/1999/xlink" x="0px" y="0px"
	 viewBox="45.7 196.3 489.9 399.4" style="enable-background:new 45.7 196.3 489.9 399.4;" xml:space="preserve">
<style type="text/css">
	.st0{fill:#EDEDED;}
</style>
<g>
	<path class="st0" d="M45.3,549.8c53.8,5.7,102.4-7.3,145.8-40.4c-3.7-0.5-7.4-0.8-11.1-1.5c-37.7-7.1-63.8-28.5-78.3-64
		c-2.2-5.3-1.8-5.7,3.9-4.8c12.3,1.9,24.4,0.8,37.5-2c-15.9-3.9-29.4-10.4-41.1-20.2c-21.9-18.2-34.6-41.5-37-70.1
		c-0.9-10.4-0.8-10.3,8.6-6.2c4.8,2.1,9.9,3.7,14.9,5.2c6,1.7,12.1,2.4,18.4,3.1c0.1-2.1-1.6-2.4-2.6-3.2
		c-22.8-18.4-35.9-41.9-38.5-71.2c-1.8-19.3,1.9-37.5,10.7-54.7c2.7-5.3,2.9-5.4,6.9-0.7c20.8,24.6,45.1,45.2,72.9,61.6
		c35,20.6,72.8,33.3,113.3,37.7c3.8,0.4,7.6,0.6,11.4,1c4.1,0.5,5.1-1.4,4.4-5.1c-3.3-17.7-1.7-35.1,4.9-51.8
		c14.6-36.9,41.7-59.2,81.1-65c32.2-4.7,60.3,5,84,27.3c2.8,2.6,5.2,2.9,8.6,2.1c18.3-4.2,35.8-10.8,52.3-19.8
		c1.8-1,3.4-2.4,6.6-2.3c-7.5,22.8-21.4,40.1-41.4,53.9c19.3-2.4,36.7-7.7,53.7-14.8c1.1,2.3-0.5,3.1-1.2,4.2
		c-11.8,17.1-26,32-42.7,44.4c-3.5,2.6-4.6,5.4-4.6,9.6c1,71-21,134.3-64.9,189.7c-42.7,53.9-98.5,86.9-166.2,99.4
		c-46.2,8.5-91.9,6.5-137-6.8c-26-7.7-50.7-18.6-73.3-33.8C45.3,550.5,45.3,550.2,45.3,549.8z"/>
</g>
</svg>
