<?xml version="1.0" encoding="utf-8"?>
<!-- Generator: Adobe Illustrator 19.0.0, SVG Export Plug-In . SVG Version: 6.00 Build 0)  -->
<svg version="1.1" xmlns="http://www.w3.org/2000/svg" xmlns:xlink="http://www.w3.org/1999/xlink" x="0px" y="0px"
	 viewBox="0 0 229.6 470.5" style="enable-background:new 0 0 229.6 470.5;" xml:space="preserve">
<style type="text/css">
	.st0{fill:#FFFFFF;}
	.st1{fill:#ABABAB;}
	.st2{fill:#ECD2AA;}
	.st3{fill:#5E5F61;}
	.st4{fill:#432913;}
	.st5{fill:#89261B;}
	.st6{fill:#111F3E;}
	.st7{fill:#090908;}
</style>
<g id="Layer_2">
</g>
<g id="Layer_1">
	<g id="XMLID_1_">
		<path id="XMLID_19_" class="st0" d="M160,200.5c-8,2.1-16.1,4.1-24.1,6.2v-1.6H90.8c-7.2-0.2-13.1-4.7-20-5.9
			c-2.9,3-6.6,1.3-9.9,1.9c17.4,35.2,34.7,70.4,52.9,107.2c15.4-30.7,29.8-59.3,44-87.9c3.2-6.4,6.1-12.8,9.1-19.3
			C164.6,201,162.3,200.8,160,200.5z"/>
		<ellipse id="XMLID_10_" class="st1" cx="114.8" cy="436.1" rx="114.8" ry="34.4"/>
		<path id="XMLID_2964_" class="st2" d="M24.5,333.4c8.4,0,16.9,0,25.3,0c0.2,8.3-4.7,12.4-12.2,12.6
			C29.8,346.2,24.4,342.3,24.5,333.4z"/>
		<path id="XMLID_8_" class="st3" d="M214,285.2"/>
		<path id="XMLID_2962_" class="st2" d="M181.5,333.3c9,0,18,0,27.1,0.1c-0.7,7.9-6.1,12.1-13,12.5
			C187.6,346.5,183.3,340.9,181.5,333.3z"/>
		<path id="XMLID_16_" class="st4" d="M112,441.8H50.3c-1.6,0-2.9-1.3-2.9-2.9V433c0-1.6,1.3-2.9,2.9-2.9H112c1.6,0,2.9,1.3,2.9,2.9
			v5.9C114.9,440.5,113.6,441.8,112,441.8z"/>
		<path id="XMLID_18_" class="st4" d="M180.5,441.8h-61.7c-1.6,0-2.9-1.3-2.9-2.9V433c0-1.6,1.3-2.9,2.9-2.9h61.7
			c1.6,0,2.9,1.3,2.9,2.9v5.9C183.4,440.5,182.1,441.8,180.5,441.8z"/>
		<rect id="XMLID_25_" x="47.4" y="435.6" class="st4" width="67.4" height="6.2"/>
		<rect id="XMLID_20_" x="115.9" y="435.6" class="st4" width="67.4" height="6.2"/>
		<polygon id="XMLID_2_" class="st5" points="120.5,224.7 114.8,224.7 109.1,224.7 101.8,206.3 114.8,206.3 127.8,206.3 		"/>
		<polygon id="XMLID_4_" class="st5" points="120.5,218.3 114.8,218.3 109.1,218.3 101.8,342.6 114.8,342.6 127.8,342.6 		"/>
		<path id="XMLID_7_" class="st6" d="M211.6,326.7c0,4.7,0.4,6.7-3,6.7c-9,0-19.8,0-28.8-0.1c-2.6,0.4-2.4,2.5-2.4,4.3
			c0.1,23.3,0.2,46.7,0.4,70c-0.5,7.6-1.1,15.2,0.3,22.8c-19.2-0.1-38.5-0.1-57.7-0.2c0.1-9.8,0.2-19.6,0.2-29.5
			c0-3.1,0.6-6.5-4.4-6.4c-4.7,0-4.8,2.9-4.8,6.3c0.1,9.8,0.1,19.6,0.1,29.5c-19.9,0.1-39.8,0.2-59.7,0.3c1-7,0.8-14,0.2-21
			c0.1-23.6,0.3-47.1,0.3-70.7c0-2.6,0.8-6.3-4.1-5.4c-8.4,0-16.9,0-25.3,0c-4.2,0-6-1.5-5.9-6.2c0.2-40.1,0.2-80.2,0-120.3
			c0-5.5,2.4-6.1,6.9-6c12.4,0.2,24.8,0.2,37.2,0.2c17.1,34.6,36,65.1,53.8,101.3c15.1-30.1,27.4-54.2,41.4-82.3
			c3.1-6.2,6-12.6,8.9-18.9c13.7-0.1,27.3-0.1,41-0.5c4.8-0.1,6.7,1.1,6.6,6.3c-0.3,22.9-0.3,45.7-0.4,68.6"/>
		<circle id="XMLID_5_" class="st2" cx="114.8" cy="105.5" r="105.5"/>
		<path id="XMLID_15_" class="st7" d="M160.4,140.5c-7.1-4.8-14.1-9.9-21.6-13.9c-9.8-5.2-17.1-3-24,6.7c-6.9-9.6-14.2-11.9-24-6.7
			c-7.5,4-14.5,9.1-21.6,13.9c-8.2,5.5-16.5,8.5-26.6,1.1c15.4,28.9,52.1,30.3,72.2,4.3c20.1,26,56.8,24.6,72.2-4.3
			C176.9,149,168.6,146,160.4,140.5z"/>
		<g id="XMLID_17_">
			<ellipse id="XMLID_28_" class="st7" cx="91.5" cy="111.6" rx="3.9" ry="4.8"/>
			<ellipse id="XMLID_26_" class="st7" cx="138.1" cy="111.6" rx="3.9" ry="4.8"/>
		</g>
		<path id="XMLID_3_" class="st7" d="M195,29c-5-9.9-14.9-18.8-24.3-16.7C163.7,2.6,102.7-8.5,68,10.9c-8.6,4.8-38.3,25.8-57.3,11.3
			c0,52,112.3,59.5,159.9,2.6c20.1,26,25.5,37.1,40.2,36.8C207.7,55.1,200.1,39.2,195,29z"/>
		<path id="XMLID_6_" class="st4" d="M195,366.3L195,366.3c-2.2,0-4-1.8-4-4v-24.7c0-2.2,1.8-4,4-4l0,0c2.2,0,4,1.8,4,4v24.7
			C199,364.5,197.2,366.3,195,366.3z"/>
		<path id="XMLID_9_" class="st4" d="M181.4,436h27.3c1.1,0,2-0.9,2-2v-77.7c0-1.1-0.9-2-2-2h-27.3c-1.1,0-2,0.9-2,2V434
			C179.4,435.1,180.3,436,181.4,436z"/>
	</g>
</g>
</svg>
