<?xml version="1.0" encoding="utf-8"?>
<!-- Generator: Adobe Illustrator 19.0.0, SVG Export Plug-In . SVG Version: 6.00 Build 0)  -->
<svg version="1.1" id="Layer_1" xmlns="http://www.w3.org/2000/svg" xmlns:xlink="http://www.w3.org/1999/xlink" x="0px" y="0px"
	 viewBox="-190 161.5 229.6 470.5" style="enable-background:new -190 161.5 229.6 470.5;" xml:space="preserve">
<style type="text/css">
	.st0{fill:#FFFFFF;}
	.st1{fill:#ABABAB;}
	.st2{fill:#ECD2AA;}
	.st3{fill:#5E5F61;}
	.st4{fill:#432913;}
	.st5{fill:#89261B;}
	.st6{fill:#111F3E;}
	.st7{fill:#090908;}
</style>
<g id="Layer_2">
</g>
<path id="XMLID_19_" class="st0" d="M-30,362c-8,2.1-16.1,4.1-24.1,6.2v-1.6h-45.1c-7.2-0.2-13.1-4.7-20-5.9c-2.9,3-6.6,1.3-9.9,1.9
	c17.4,35.2,34.7,70.4,52.9,107.2c15.4-30.7,29.8-59.3,44-87.9c3.2-6.4,6.1-12.8,9.1-19.3C-25.4,362.5-27.7,362.3-30,362z"/>
<ellipse id="XMLID_10_" class="st1" cx="-75.2" cy="597.6" rx="114.8" ry="34.4"/>
<path id="XMLID_2964_" class="st2" d="M-165.5,494.9c8.4,0,16.9,0,25.3,0c0.2,8.3-4.7,12.4-12.2,12.6
	C-160.2,507.7-165.6,503.8-165.5,494.9z"/>
<path id="XMLID_8_" class="st3" d="M24,446.7"/>
<path id="XMLID_2962_" class="st2" d="M-8.5,494.8c9,0,18,0,27.1,0.1c-0.7,7.9-6.1,12.1-13,12.5C-2.4,508-6.7,502.4-8.5,494.8z"/>
<path id="XMLID_16_" class="st4" d="M-78,603.3h-61.7c-1.6,0-2.9-1.3-2.9-2.9v-5.9c0-1.6,1.3-2.9,2.9-2.9H-78c1.6,0,2.9,1.3,2.9,2.9
	v5.9C-75.1,602-76.4,603.3-78,603.3z"/>
<path id="XMLID_18_" class="st4" d="M-9.5,603.3h-61.7c-1.6,0-2.9-1.3-2.9-2.9v-5.9c0-1.6,1.3-2.9,2.9-2.9h61.7
	c1.6,0,2.9,1.3,2.9,2.9v5.9C-6.6,602-7.9,603.3-9.5,603.3z"/>
<rect id="XMLID_25_" x="-142.6" y="597.1" class="st4" width="67.4" height="6.2"/>
<rect id="XMLID_20_" x="-74.1" y="597.1" class="st4" width="67.4" height="6.2"/>
<polygon id="XMLID_2_" class="st5" points="-69.5,386.2 -75.2,386.2 -80.9,386.2 -88.2,367.8 -75.2,367.8 -62.2,367.8 "/>
<polygon id="XMLID_4_" class="st5" points="-69.5,379.8 -75.2,379.8 -80.9,379.8 -88.2,504.1 -75.2,504.1 -62.2,504.1 "/>
<path id="XMLID_7_" class="st6" d="M21.6,488.2c0,4.7,0.4,6.7-3,6.7c-9,0-19.8,0-28.8-0.1c-2.6,0.4-2.4,2.5-2.4,4.3
	c0.1,23.3,0.2,46.7,0.4,70c-0.5,7.6-1.1,15.2,0.3,22.8c-19.2-0.1-38.5-0.1-57.7-0.2c0.1-9.8,0.2-19.6,0.2-29.5
	c0-3.1,0.6-6.5-4.4-6.4c-4.7,0-4.8,2.9-4.8,6.3c0.1,9.8,0.1,19.6,0.1,29.5c-19.9,0.1-39.8,0.2-59.7,0.3c1-7,0.8-14,0.2-21
	c0.1-23.6,0.3-47.1,0.3-70.7c0-2.6,0.8-6.3-4.1-5.4c-8.4,0-16.9,0-25.3,0c-4.2,0-6-1.5-5.9-6.2c0.2-40.1,0.2-80.2,0-120.3
	c0-5.5,2.4-6.1,6.9-6c12.4,0.2,24.8,0.2,37.2,0.2c17.1,34.6,36,65.1,53.8,101.3c15.1-30.1,27.4-54.2,41.4-82.3
	c3.1-6.2,6-12.6,8.9-18.9c13.7-0.1,27.3-0.1,41-0.5c4.8-0.1,6.7,1.1,6.6,6.3c-0.3,22.9-0.3,45.7-0.4,68.6"/>
<circle id="XMLID_5_" class="st2" cx="-75.2" cy="267" r="105.5"/>
<path id="XMLID_15_" class="st7" d="M-29.6,302c-7.1-4.8-14.1-9.9-21.6-13.9c-9.8-5.2-17.1-3-24,6.7c-6.9-9.6-14.2-11.9-24-6.7
	c-7.5,4-14.5,9.1-21.6,13.9c-8.2,5.5-16.5,8.5-26.6,1.1c15.4,28.9,52.1,30.3,72.2,4.3c20.1,26,56.8,24.6,72.2-4.3
	C-13.1,310.5-21.4,307.5-29.6,302z"/>
<g id="XMLID_17_">
	<ellipse id="XMLID_28_" class="st7" cx="-98.5" cy="273.1" rx="3.9" ry="4.8"/>
	<ellipse id="XMLID_26_" class="st7" cx="-51.9" cy="273.1" rx="3.9" ry="4.8"/>
</g>
<path id="XMLID_3_" class="st7" d="M5,190.5c-5-9.9-14.9-18.8-24.3-16.7c-7-9.7-68-20.8-102.7-1.4c-8.6,4.8-38.3,25.8-57.3,11.3
	c0,52,112.3,59.5,159.9,2.6c20.1,26,25.5,37.1,40.2,36.8C17.7,216.6,10.1,200.7,5,190.5z"/>
<path id="XMLID_6_" class="st4" d="M5,527.8L5,527.8c-2.2,0-4-1.8-4-4v-24.7c0-2.2,1.8-4,4-4l0,0c2.2,0,4,1.8,4,4v24.7
	C9,526,7.2,527.8,5,527.8z"/>
<path id="XMLID_9_" class="st4" d="M-8.6,597.5h27.3c1.1,0,2-0.9,2-2v-77.7c0-1.1-0.9-2-2-2H-8.6c-1.1,0-2,0.9-2,2v77.7
	C-10.6,596.6-9.7,597.5-8.6,597.5z"/>
</svg>
