<?xml version="1.0" encoding="utf-8"?>
<!-- Generator: Adobe Illustrator 19.0.0, SVG Export Plug-In . SVG Version: 6.00 Build 0)  -->
<svg version="1.1" id="Layer_1" xmlns="http://www.w3.org/2000/svg" xmlns:xlink="http://www.w3.org/1999/xlink" x="0px" y="0px"
	 viewBox="-392 153.2 494.9 494.8" style="enable-background:new -392 153.2 494.9 494.8;" xml:space="preserve">
<style type="text/css">
	.st0{fill:#FFFFFF;}
</style>
<g>
	<path class="st0" d="M-234,324c-11.1-13-25.8-19.4-42.3-22.2c-4.5,0-9,0-13.5,0c-12.9,2.1-24.9,6.4-35.1,14.8
		c-13.1,10.7-20.6,24.7-23.9,41.2c0,6.8,0,13.5,0,20.3c0.5,1.7,1,3.4,1.4,5.1c8,30.9,33.9,51,65.9,50.2
		c27.8-0.7,47.8-14.6,58.8-39.8C-211.7,368.5-216.2,344.7-234,324z"/>
	<path class="st0" d="M-224.8,471.4c-0.3-7.7-3.3-11.2-10.9-11.2c-31.6-0.2-63.1-0.2-94.7,0c-8.1,0-10.9,3.4-10.9,11.5
		c-0.1,104.5,0,209.1-0.1,313.6c0,5.5,1.8,9.4,7.2,11.2c34.2,0,68.3,0,102.5,0c6.6-2.5,7-8,6.9-13.9c0-102.8,0-205.5,0-308.3
		C-224.8,473.3-224.8,472.4-224.8,471.4z"/>
	<path class="st0" d="M-172.9,796.6c34.2,0,68.3,0,102.5,0c6.1-2.3,7-7.3,7-13c0-49.6-0.1-99.2,0-148.8c0-9-0.3-18,1-27
		c1.1-7.8,2.2-15.6,4.9-23.1c6.2-17,18.5-25.8,36.2-27.4c5.9-0.5,11.9-0.6,17.8,0.3c15.9,2.4,25.1,12.1,29.3,27.1
		c2.4,8.4,3.7,17,3.9,25.7c1,55.9,0.3,111.8,0.5,167.7c0,2.5,0.1,5.1,0.1,7.7c0,4.9,1.9,8.7,6.6,10.8c35.2,0,70.3-0.1,105.4,0.1
		c3.4,0,4-0.7,3.7-4.1c-0.1-69.6-0.1-139.2-0.1-208.8c-1.6-13-2.6-26.2-5.5-39.1c-5.4-24.5-15.1-46.9-33.9-64.3
		c-16.5-15.3-36.8-22.7-58.7-26c-21.3-3.3-42.6-3.2-63.6,2.7c-18.3,5.2-34.5,14.2-48.2,27.4c-0.8,0.8-1.4,1.8-3,1.9
		c-1.1-4.3-0.4-8.8-0.5-13.2c-0.2-10-3.1-13.1-13-13.1c-28.8-0.1-57.7-0.1-86.5,0c-10.1,0.1-13,3.1-13,13c0,103.6,0.1,207.1,0,310.7
		C-180,789.5-179,794.4-172.9,796.6z"/>
</g>
</svg>
