<?xml version="1.0" encoding="utf-8"?>
<!-- Generator: Adobe Illustrator 19.0.0, SVG Export Plug-In . SVG Version: 6.00 Build 0)  -->
<svg version="1.1" id="Layer_1" xmlns="http://www.w3.org/2000/svg" xmlns:xlink="http://www.w3.org/1999/xlink" x="0px" y="0px"
	 viewBox="11.5 195.6 558.3 400.9" style="enable-background:new 11.5 195.6 558.3 400.9;" xml:space="preserve">
<style type="text/css">
	.st0{fill:#EDEDED;}
</style>
<g>
	<path class="st0" d="M569.8,562.5c-10.1-6.6-18.6-15-27.7-22.7c-52.8-44.7-105.5-89.6-158.3-134.4c-7.5-6.4-7.7-6.5-0.1-13.1
		c48.9-42.6,97.9-85.1,146.8-127.7c11.9-10.4,23.9-20.7,35.8-31.1c1.1-0.9,2.3-1.7,3.5-2.5C569.8,341.4,569.8,452,569.8,562.5z"/>
	<path class="st0" d="M11.4,230.9c13.9,11.9,27.9,23.7,41.8,35.8c49.1,42.7,98.1,85.4,147.3,128c4,3.5,3.5,5.1-0.1,8.2
		c-39.9,33.8-79.8,67.7-119.7,101.6C59.8,522.3,38.9,540,18,557.8c-2.1,1.7-3.9,3.8-6.6,4.7C11.4,452,11.4,341.4,11.4,230.9z"/>
	<path class="st0" d="M291.3,195.7c78.5,0,157,0.1,235.5-0.1c9.4,0,18,1.9,25.8,7.1c5.6,3.8,5.6,4.2,0.6,8.5
		c-26.6,22.9-53.2,45.7-79.8,68.5c-54.8,46.9-109.5,93.9-164.3,140.8c-5,4.3-10.1,8.4-14.9,12.8c-2.8,2.6-4.7,2.1-7.4-0.2
		C248.9,400.5,211,368,173,335.5c-47.1-40.4-94.3-80.8-141.5-121.2c-9.1-7.8-9.1-8.5,1.6-14c6.8-3.5,14-4.6,21.6-4.6
		C133.5,195.7,212.4,195.7,291.3,195.7z"/>
	<path class="st0" d="M290,595.5c-78.5,0-157,0-235.5,0.1c-9.4,0-18-1.9-25.8-7.1c-5.6-3.7-5.6-4.2-0.6-8.5
		c25.9-22.3,51.8-44.5,77.8-66.7c37.1-31.8,74.3-63.5,111.3-95.5c3.3-2.8,5.3-3,8.6-0.1c19.3,17.1,38.8,34,58.2,51.1
		c6.8,6,6.6,6,13.6-0.2c19.4-17,38.9-33.9,58.2-51c3.1-2.7,5-2.7,8.2,0c62.8,54,125.7,107.9,188.6,161.9c5.5,4.7,5.5,5.5-0.5,9.4
		c-7.7,5-16.2,6.8-25.4,6.8C447.8,595.5,368.9,595.5,290,595.5z"/>
</g>
</svg>
